<svg xmlns="http://www.w3.org/2000/svg" xmlns:xlink="http://www.w3.org/1999/xlink" width="321" zoomAndPan="magnify" viewBox="0 0 240.75 141.750002" height="188" preserveAspectRatio="xMidYMid meet" version="1.0"><defs><g/><clipPath id="4348b12210"><path d="M 186.847656 119.613281 L 192.089844 119.613281 L 192.089844 124.855469 L 186.847656 124.855469 Z M 186.847656 119.613281 " clip-rule="nonzero"/></clipPath><clipPath id="fc152ba4ee"><path d="M 186.847656 110.890625 L 192.089844 110.890625 L 192.089844 115.382812 L 186.847656 115.382812 Z M 186.847656 110.890625 " clip-rule="nonzero"/></clipPath></defs><g clip-path="url(#4348b12210)"><path fill="#584635" d="M 189.511719 119.613281 C 188.039062 119.613281 186.847656 120.804688 186.847656 122.273438 C 186.847656 123.746094 188.039062 124.9375 189.511719 124.9375 C 190.980469 124.9375 192.171875 123.746094 192.171875 122.273438 C 192.171875 120.804688 190.980469 119.613281 189.511719 119.613281 Z M 189.246094 124.382812 C 188.195312 124.253906 187.382812 123.359375 187.382812 122.273438 C 187.382812 122.109375 187.402344 121.949219 187.4375 121.796875 L 188.710938 123.074219 L 188.710938 123.339844 C 188.710938 123.632812 188.949219 123.871094 189.246094 123.871094 Z M 191.078125 123.710938 C 191.011719 123.496094 190.8125 123.339844 190.574219 123.339844 L 190.308594 123.339844 L 190.308594 122.539062 C 190.308594 122.394531 190.1875 122.273438 190.042969 122.273438 L 188.445312 122.273438 L 188.445312 121.742188 L 188.976562 121.742188 C 189.125 121.742188 189.246094 121.621094 189.246094 121.476562 L 189.246094 120.945312 L 189.777344 120.945312 C 190.070312 120.945312 190.308594 120.707031 190.308594 120.410156 L 190.308594 120.300781 C 191.089844 120.617188 191.640625 121.378906 191.640625 122.273438 C 191.640625 122.828125 191.425781 123.332031 191.078125 123.710938 Z M 191.078125 123.710938 " fill-opacity="1" fill-rule="nonzero"/></g><g clip-path="url(#fc152ba4ee)"><path fill="#584635" d="M 191.640625 110.890625 L 187.382812 110.890625 C 187.085938 110.890625 186.851562 111.128906 186.851562 111.421875 L 186.847656 114.617188 C 186.847656 114.910156 187.085938 115.148438 187.382812 115.148438 L 191.640625 115.148438 C 191.933594 115.148438 192.171875 114.910156 192.171875 114.617188 L 192.171875 111.421875 C 192.171875 111.128906 191.933594 110.890625 191.640625 110.890625 Z M 191.640625 111.953125 L 189.511719 113.285156 L 187.382812 111.953125 L 187.382812 111.421875 L 189.511719 112.753906 L 191.640625 111.421875 Z M 191.640625 111.953125 " fill-opacity="1" fill-rule="nonzero"/></g><g fill="#000000" fill-opacity="1"><g transform="translate(25.33048, 104.861894)"><g><path d="M 1.3125 -12.578125 L 5.4375 -12.578125 C 7 -12.578125 8.140625 -12.203125 8.859375 -11.453125 C 9.578125 -10.710938 9.9375 -9.53125 9.9375 -7.90625 L 9.9375 -4.671875 C 9.9375 -3.046875 9.578125 -1.859375 8.859375 -1.109375 C 8.140625 -0.367188 7 0 5.4375 0 L 1.3125 0 L 1.3125 -1.421875 L 2.390625 -1.421875 L 2.390625 -11.171875 L 1.3125 -11.171875 Z M 5.234375 -1.40625 C 5.785156 -1.40625 6.257812 -1.457031 6.65625 -1.5625 C 7.0625 -1.664062 7.394531 -1.847656 7.65625 -2.109375 C 7.914062 -2.367188 8.109375 -2.710938 8.234375 -3.140625 C 8.359375 -3.578125 8.421875 -4.125 8.421875 -4.78125 L 8.421875 -7.796875 C 8.421875 -8.453125 8.359375 -8.992188 8.234375 -9.421875 C 8.109375 -9.859375 7.914062 -10.207031 7.65625 -10.46875 C 7.394531 -10.726562 7.0625 -10.910156 6.65625 -11.015625 C 6.257812 -11.117188 5.785156 -11.171875 5.234375 -11.171875 L 3.90625 -11.171875 L 3.90625 -1.40625 Z M 5.234375 -1.40625 "/></g></g></g><g fill="#000000" fill-opacity="1"><g transform="translate(36.327054, 104.861894)"><g><path d="M 4.328125 -11.578125 C 4.328125 -11.921875 4.445312 -12.210938 4.6875 -12.453125 C 4.9375 -12.703125 5.238281 -12.828125 5.59375 -12.828125 C 5.9375 -12.828125 6.226562 -12.703125 6.46875 -12.453125 C 6.71875 -12.210938 6.84375 -11.921875 6.84375 -11.578125 C 6.84375 -11.222656 6.71875 -10.921875 6.46875 -10.671875 C 6.226562 -10.429688 5.9375 -10.3125 5.59375 -10.3125 C 5.238281 -10.3125 4.9375 -10.429688 4.6875 -10.671875 C 4.445312 -10.921875 4.328125 -11.222656 4.328125 -11.578125 Z M 1.78125 -1.296875 L 4.90625 -1.296875 L 4.90625 -7.625 L 2.109375 -7.625 L 2.109375 -8.90625 L 6.3125 -8.90625 L 6.3125 -1.296875 L 9.21875 -1.296875 L 9.21875 0 L 1.78125 0 Z M 1.78125 -1.296875 "/></g></g></g><g fill="#000000" fill-opacity="1"><g transform="translate(47.323628, 104.861894)"><g><path d="M 10.140625 0 L 8.734375 0 L 8.734375 -6.390625 C 8.734375 -6.816406 8.632812 -7.160156 8.4375 -7.421875 C 8.25 -7.691406 7.945312 -7.828125 7.53125 -7.828125 C 7.132812 -7.828125 6.8125 -7.679688 6.5625 -7.390625 C 6.320312 -7.097656 6.203125 -6.644531 6.203125 -6.03125 L 6.203125 0 L 4.796875 0 L 4.796875 -6.46875 C 4.796875 -6.863281 4.6875 -7.1875 4.46875 -7.4375 C 4.257812 -7.695312 3.972656 -7.828125 3.609375 -7.828125 C 3.179688 -7.828125 2.847656 -7.671875 2.609375 -7.359375 C 2.378906 -7.054688 2.265625 -6.648438 2.265625 -6.140625 L 2.265625 0 L 0.859375 0 L 0.859375 -8.90625 L 2.265625 -8.90625 L 2.265625 -7.9375 L 2.484375 -7.9375 C 2.640625 -8.363281 2.863281 -8.671875 3.15625 -8.859375 C 3.457031 -9.054688 3.8125 -9.15625 4.21875 -9.15625 C 4.65625 -9.15625 5.015625 -9.039062 5.296875 -8.8125 C 5.578125 -8.59375 5.769531 -8.300781 5.875 -7.9375 L 6.09375 -7.9375 C 6.5 -8.75 7.144531 -9.15625 8.03125 -9.15625 C 8.695312 -9.15625 9.210938 -8.941406 9.578125 -8.515625 C 9.953125 -8.097656 10.140625 -7.546875 10.140625 -6.859375 Z M 10.140625 0 "/></g></g></g><g fill="#000000" fill-opacity="1"><g transform="translate(58.320201, 104.861894)"><g><path d="M 4.328125 -11.578125 C 4.328125 -11.921875 4.445312 -12.210938 4.6875 -12.453125 C 4.9375 -12.703125 5.238281 -12.828125 5.59375 -12.828125 C 5.9375 -12.828125 6.226562 -12.703125 6.46875 -12.453125 C 6.71875 -12.210938 6.84375 -11.921875 6.84375 -11.578125 C 6.84375 -11.222656 6.71875 -10.921875 6.46875 -10.671875 C 6.226562 -10.429688 5.9375 -10.3125 5.59375 -10.3125 C 5.238281 -10.3125 4.9375 -10.429688 4.6875 -10.671875 C 4.445312 -10.921875 4.328125 -11.222656 4.328125 -11.578125 Z M 1.78125 -1.296875 L 4.90625 -1.296875 L 4.90625 -7.625 L 2.109375 -7.625 L 2.109375 -8.90625 L 6.3125 -8.90625 L 6.3125 -1.296875 L 9.21875 -1.296875 L 9.21875 0 L 1.78125 0 Z M 1.78125 -1.296875 "/></g></g></g><g fill="#000000" fill-opacity="1"><g transform="translate(69.316775, 104.861894)"><g><path d="M 1.25 -8.90625 L 4.0625 -8.90625 L 4.0625 -12.578125 L 5.46875 -12.578125 L 5.46875 -8.90625 L 8.90625 -8.90625 L 8.90625 -7.625 L 5.46875 -7.625 L 5.46875 -1.828125 C 5.46875 -1.472656 5.628906 -1.296875 5.953125 -1.296875 L 8.484375 -1.296875 L 8.484375 0 L 5.4375 0 C 5.03125 0 4.695312 -0.128906 4.4375 -0.390625 C 4.1875 -0.660156 4.0625 -1 4.0625 -1.40625 L 4.0625 -7.625 L 1.25 -7.625 Z M 1.25 -8.90625 "/></g></g></g><g fill="#000000" fill-opacity="1"><g transform="translate(80.313349, 104.861894)"><g><path d="M 1.0625 -8.90625 L 4.296875 -8.90625 L 4.296875 -7.71875 L 4.515625 -7.71875 C 4.734375 -8.21875 5.050781 -8.582031 5.46875 -8.8125 C 5.894531 -9.039062 6.378906 -9.15625 6.921875 -9.15625 C 7.816406 -9.15625 8.539062 -8.863281 9.09375 -8.28125 C 9.644531 -7.695312 9.9375 -6.84375 9.96875 -5.71875 L 8.5 -5.5 C 8.5 -6.320312 8.300781 -6.914062 7.90625 -7.28125 C 7.507812 -7.644531 7.023438 -7.828125 6.453125 -7.828125 C 6.078125 -7.828125 5.753906 -7.753906 5.484375 -7.609375 C 5.210938 -7.472656 4.988281 -7.273438 4.8125 -7.015625 C 4.632812 -6.765625 4.503906 -6.472656 4.421875 -6.140625 C 4.335938 -5.804688 4.296875 -5.445312 4.296875 -5.0625 L 4.296875 -1.296875 L 6.5625 -1.296875 L 6.5625 0 L 0.84375 0 L 0.84375 -1.296875 L 2.890625 -1.296875 L 2.890625 -7.625 L 1.0625 -7.625 Z M 1.0625 -8.90625 "/></g></g></g><g fill="#000000" fill-opacity="1"><g transform="translate(91.309923, 104.861894)"><g><path d="M 4.328125 -11.578125 C 4.328125 -11.921875 4.445312 -12.210938 4.6875 -12.453125 C 4.9375 -12.703125 5.238281 -12.828125 5.59375 -12.828125 C 5.9375 -12.828125 6.226562 -12.703125 6.46875 -12.453125 C 6.71875 -12.210938 6.84375 -11.921875 6.84375 -11.578125 C 6.84375 -11.222656 6.71875 -10.921875 6.46875 -10.671875 C 6.226562 -10.429688 5.9375 -10.3125 5.59375 -10.3125 C 5.238281 -10.3125 4.9375 -10.429688 4.6875 -10.671875 C 4.445312 -10.921875 4.328125 -11.222656 4.328125 -11.578125 Z M 1.78125 -1.296875 L 4.90625 -1.296875 L 4.90625 -7.625 L 2.109375 -7.625 L 2.109375 -8.90625 L 6.3125 -8.90625 L 6.3125 -1.296875 L 9.21875 -1.296875 L 9.21875 0 L 1.78125 0 Z M 1.78125 -1.296875 "/></g></g></g><g fill="#000000" fill-opacity="1"><g transform="translate(102.306497, 104.861894)"><g><path d="M 3.40625 -6.609375 C 3.40625 -6.179688 3.585938 -5.851562 3.953125 -5.625 C 4.328125 -5.394531 5 -5.242188 5.96875 -5.171875 C 7.007812 -5.085938 7.800781 -4.835938 8.34375 -4.421875 C 8.882812 -4.015625 9.15625 -3.414062 9.15625 -2.625 L 9.15625 -2.515625 C 9.15625 -2.085938 9.066406 -1.703125 8.890625 -1.359375 C 8.722656 -1.015625 8.484375 -0.722656 8.171875 -0.484375 C 7.867188 -0.242188 7.5 -0.0625 7.0625 0.0625 C 6.632812 0.1875 6.160156 0.25 5.640625 0.25 C 4.941406 0.25 4.34375 0.15625 3.84375 -0.03125 C 3.351562 -0.21875 2.941406 -0.460938 2.609375 -0.765625 C 2.285156 -1.066406 2.035156 -1.410156 1.859375 -1.796875 C 1.691406 -2.191406 1.597656 -2.585938 1.578125 -2.984375 L 2.90625 -3.3125 C 2.96875 -2.625 3.234375 -2.070312 3.703125 -1.65625 C 4.171875 -1.25 4.789062 -1.046875 5.5625 -1.046875 C 6.226562 -1.046875 6.757812 -1.171875 7.15625 -1.421875 C 7.5625 -1.679688 7.765625 -2.046875 7.765625 -2.515625 C 7.765625 -3.015625 7.566406 -3.375 7.171875 -3.59375 C 6.773438 -3.8125 6.132812 -3.945312 5.25 -4 C 4.21875 -4.070312 3.425781 -4.3125 2.875 -4.71875 C 2.320312 -5.132812 2.046875 -5.726562 2.046875 -6.5 L 2.046875 -6.609375 C 2.046875 -7.023438 2.132812 -7.390625 2.3125 -7.703125 C 2.5 -8.023438 2.742188 -8.296875 3.046875 -8.515625 C 3.347656 -8.734375 3.691406 -8.894531 4.078125 -9 C 4.460938 -9.101562 4.863281 -9.15625 5.28125 -9.15625 C 5.863281 -9.15625 6.378906 -9.070312 6.828125 -8.90625 C 7.273438 -8.75 7.644531 -8.539062 7.9375 -8.28125 C 8.238281 -8.03125 8.46875 -7.738281 8.625 -7.40625 C 8.789062 -7.070312 8.898438 -6.734375 8.953125 -6.390625 L 7.625 -6.078125 C 7.5625 -6.648438 7.328125 -7.097656 6.921875 -7.421875 C 6.523438 -7.742188 6.003906 -7.90625 5.359375 -7.90625 C 5.109375 -7.90625 4.863281 -7.878906 4.625 -7.828125 C 4.394531 -7.773438 4.1875 -7.691406 4 -7.578125 C 3.820312 -7.472656 3.675781 -7.335938 3.5625 -7.171875 C 3.457031 -7.015625 3.40625 -6.828125 3.40625 -6.609375 Z M 3.40625 -6.609375 "/></g></g></g><path fill="#000000" d="M 89.824219 48.332031 L 89.851562 48.359375 L 89.851562 48.523438 L 89.824219 48.546875 C 89.746094 48.546875 89.703125 48.550781 89.691406 48.554688 C 89.632812 48.5625 89.59375 48.582031 89.566406 48.609375 C 89.539062 48.636719 89.515625 48.679688 89.496094 48.738281 C 89.457031 48.847656 89.378906 49.097656 89.269531 49.484375 C 89.214844 49.675781 89.136719 49.96875 89.035156 50.359375 L 88.808594 51.230469 C 88.714844 51.589844 88.664062 51.820312 88.652344 51.921875 L 88.265625 51.921875 L 88.136719 51.574219 C 87.925781 51 87.726562 50.484375 87.546875 50.03125 L 87.402344 49.671875 C 87.371094 49.589844 87.339844 49.503906 87.304688 49.410156 L 86.648438 50.96875 C 86.582031 51.125 86.492188 51.347656 86.375 51.644531 L 86.261719 51.921875 L 85.894531 51.921875 L 85.273438 49.03125 C 85.242188 48.882812 85.21875 48.789062 85.203125 48.742188 C 85.167969 48.636719 85.121094 48.578125 85.058594 48.5625 C 85.03125 48.554688 84.964844 48.550781 84.863281 48.542969 L 84.835938 48.519531 L 84.835938 48.359375 L 84.863281 48.332031 C 85.160156 48.34375 85.386719 48.347656 85.539062 48.347656 C 85.722656 48.347656 85.988281 48.34375 86.335938 48.332031 L 86.363281 48.359375 L 86.363281 48.519531 L 86.339844 48.542969 C 86.222656 48.546875 86.160156 48.550781 86.144531 48.554688 C 86.082031 48.558594 86.039062 48.574219 86.019531 48.59375 C 86 48.609375 85.988281 48.640625 85.988281 48.683594 C 85.988281 48.722656 86.003906 48.828125 86.035156 49 L 86.121094 49.460938 C 86.148438 49.59375 86.191406 49.808594 86.253906 50.101562 L 86.402344 50.785156 L 86.722656 50.023438 C 86.785156 49.871094 86.882812 49.644531 87.007812 49.339844 L 87.304688 48.617188 C 87.363281 48.484375 87.40625 48.375 87.4375 48.289062 L 87.667969 48.289062 C 87.839844 48.773438 88.160156 49.59375 88.625 50.753906 L 89.074219 48.964844 C 89.105469 48.824219 89.121094 48.734375 89.121094 48.699219 C 89.121094 48.625 89.082031 48.578125 89.003906 48.566406 C 88.976562 48.5625 88.886719 48.554688 88.734375 48.546875 L 88.710938 48.519531 L 88.710938 48.359375 L 88.738281 48.332031 C 89.027344 48.34375 89.195312 48.351562 89.242188 48.347656 Z M 120.113281 18.675781 C 120.277344 18.675781 120.457031 18.679688 120.652344 18.691406 L 120.675781 18.667969 L 120.675781 18.496094 L 120.652344 18.472656 C 120.480469 18.460938 120.382812 18.453125 120.355469 18.445312 C 120.308594 18.433594 120.277344 18.402344 120.269531 18.351562 C 120.25 18.230469 120.238281 17.972656 120.238281 17.570312 L 120.238281 15.921875 C 121.324219 17.261719 122.09375 18.183594 122.542969 18.691406 C 122.640625 18.703125 122.785156 18.726562 122.972656 18.757812 L 123.007812 18.734375 C 122.984375 18.507812 122.972656 18.015625 122.972656 17.261719 L 122.972656 16.238281 C 122.972656 15.839844 122.984375 15.578125 123.007812 15.457031 C 123.015625 15.410156 123.042969 15.378906 123.09375 15.363281 C 123.117188 15.355469 123.214844 15.347656 123.386719 15.339844 L 123.414062 15.3125 L 123.414062 15.140625 L 123.390625 15.121094 C 123.214844 15.128906 123.019531 15.132812 122.804688 15.132812 C 122.636719 15.132812 122.457031 15.128906 122.269531 15.121094 L 122.242188 15.140625 L 122.242188 15.3125 L 122.269531 15.339844 C 122.441406 15.347656 122.539062 15.355469 122.5625 15.363281 C 122.613281 15.378906 122.640625 15.410156 122.648438 15.457031 C 122.671875 15.578125 122.679688 15.839844 122.679688 16.238281 L 122.679688 17.710938 C 121.863281 16.789062 121.15625 15.925781 120.550781 15.121094 C 120.398438 15.128906 120.210938 15.132812 119.984375 15.132812 C 119.839844 15.132812 119.6875 15.128906 119.527344 15.121094 L 119.503906 15.140625 L 119.503906 15.3125 L 119.527344 15.339844 C 119.699219 15.347656 119.800781 15.355469 119.824219 15.363281 C 119.871094 15.378906 119.902344 15.410156 119.910156 15.457031 C 119.929688 15.578125 119.941406 15.839844 119.941406 16.238281 L 119.941406 17.570312 C 119.941406 17.972656 119.929688 18.230469 119.910156 18.351562 C 119.902344 18.402344 119.871094 18.433594 119.824219 18.445312 C 119.800781 18.453125 119.699219 18.460938 119.527344 18.472656 L 119.503906 18.496094 L 119.503906 18.667969 L 119.527344 18.691406 C 119.722656 18.679688 119.917969 18.675781 120.113281 18.675781 Z M 121.859375 84.445312 C 121.777344 84.414062 121.6875 84.390625 121.585938 84.371094 C 121.425781 84.34375 121.328125 84.328125 121.292969 84.324219 C 120.953125 84.269531 120.738281 84.210938 120.648438 84.152344 C 120.507812 84.0625 120.441406 83.921875 120.441406 83.726562 C 120.441406 83.550781 120.5 83.40625 120.625 83.292969 C 120.753906 83.171875 120.933594 83.113281 121.15625 83.113281 C 121.308594 83.113281 121.449219 83.140625 121.589844 83.199219 C 121.71875 83.253906 121.808594 83.320312 121.859375 83.398438 C 121.871094 83.460938 121.882812 83.59375 121.886719 83.792969 L 121.910156 83.820312 L 122.070312 83.820312 L 122.097656 83.792969 C 122.105469 83.511719 122.132812 83.273438 122.171875 83.074219 L 122.152344 83.011719 C 121.910156 82.886719 121.59375 82.824219 121.199219 82.824219 C 120.765625 82.824219 120.421875 82.929688 120.179688 83.144531 C 119.945312 83.351562 119.832031 83.625 119.832031 83.96875 C 119.832031 84.300781 119.9375 84.546875 120.148438 84.703125 C 120.292969 84.808594 120.585938 84.894531 121.035156 84.960938 C 121.234375 84.992188 121.375 85.03125 121.464844 85.074219 C 121.644531 85.167969 121.734375 85.320312 121.734375 85.535156 C 121.734375 85.664062 121.703125 85.789062 121.636719 85.90625 C 121.507812 86.140625 121.277344 86.253906 120.945312 86.253906 C 120.769531 86.253906 120.601562 86.214844 120.4375 86.132812 C 120.28125 86.058594 120.171875 85.964844 120.113281 85.855469 C 120.09375 85.703125 120.082031 85.578125 120.082031 85.484375 L 120.082031 85.425781 L 120.058594 85.402344 L 119.898438 85.402344 L 119.871094 85.425781 C 119.871094 85.78125 119.847656 86.058594 119.800781 86.25 L 119.832031 86.304688 C 120.171875 86.46875 120.519531 86.546875 120.871094 86.546875 C 121.15625 86.546875 121.398438 86.503906 121.605469 86.421875 C 121.828125 86.332031 122.007812 86.191406 122.144531 86.003906 C 122.304688 85.792969 122.382812 85.550781 122.382812 85.273438 C 122.382812 85.058594 122.335938 84.882812 122.242188 84.738281 C 122.160156 84.605469 122.03125 84.511719 121.859375 84.445312 Z M 121.339844 48.792969 C 120.210938 48.792969 119.296875 49.707031 119.296875 50.832031 C 119.296875 51.960938 120.210938 52.875 121.339844 52.875 C 122.464844 52.875 123.378906 51.960938 123.378906 50.832031 C 123.378906 49.707031 122.464844 48.792969 121.339844 48.792969 Z M 155.628906 51.007812 L 155.476562 51.007812 L 155.453125 51.035156 L 155.390625 51.347656 C 155.375 51.425781 155.359375 51.476562 155.34375 51.5 C 155.335938 51.511719 155.320312 51.519531 155.300781 51.527344 C 155.191406 51.566406 154.890625 51.585938 154.402344 51.585938 L 154.058594 51.585938 C 154.050781 51.378906 154.046875 51.164062 154.046875 50.945312 L 154.046875 50.175781 C 154.152344 50.167969 154.265625 50.164062 154.386719 50.164062 C 154.503906 50.164062 154.613281 50.167969 154.714844 50.175781 C 154.851562 50.1875 154.933594 50.210938 154.960938 50.25 C 154.988281 50.285156 155 50.398438 155 50.59375 L 155.027344 50.617188 L 155.195312 50.617188 L 155.21875 50.59375 C 155.210938 50.394531 155.210938 50.207031 155.210938 50.039062 C 155.210938 49.882812 155.210938 49.710938 155.21875 49.523438 L 155.195312 49.496094 L 155.039062 49.496094 L 155.011719 49.523438 C 155.003906 49.71875 154.988281 49.832031 154.960938 49.863281 C 154.941406 49.886719 154.851562 49.898438 154.699219 49.898438 L 154.367188 49.902344 C 154.285156 49.902344 154.179688 49.898438 154.046875 49.890625 L 154.046875 49.367188 C 154.046875 49.054688 154.054688 48.8125 154.074219 48.632812 C 154.222656 48.625 154.371094 48.617188 154.515625 48.617188 C 154.640625 48.617188 154.78125 48.625 154.945312 48.636719 C 155.105469 48.652344 155.195312 48.667969 155.214844 48.691406 C 155.238281 48.726562 155.253906 48.855469 155.253906 49.082031 L 155.28125 49.109375 L 155.425781 49.109375 L 155.453125 49.082031 L 155.46875 48.847656 C 155.472656 48.785156 155.480469 48.707031 155.492188 48.621094 L 155.523438 48.339844 L 155.496094 48.320312 C 154.609375 48.328125 154.011719 48.335938 153.695312 48.335938 C 153.339844 48.335938 153.078125 48.328125 152.910156 48.320312 L 152.882812 48.34375 L 152.882812 48.515625 L 152.910156 48.539062 C 153.082031 48.550781 153.179688 48.558594 153.203125 48.5625 C 153.253906 48.578125 153.28125 48.609375 153.289062 48.65625 C 153.3125 48.777344 153.320312 49.039062 153.320312 49.4375 L 153.320312 50.714844 L 153.3125 51.28125 C 153.3125 51.472656 153.300781 51.582031 153.285156 51.617188 C 153.277344 51.636719 153.210938 51.683594 153.085938 51.765625 L 153.074219 51.792969 L 153.074219 51.863281 L 153.097656 51.890625 C 153.222656 51.878906 153.441406 51.875 153.746094 51.875 L 155.578125 51.890625 L 155.601562 51.863281 C 155.601562 51.554688 155.621094 51.277344 155.65625 51.035156 Z M 140.257812 52.941406 C 140.070312 54.648438 139.664062 56.300781 139.039062 57.867188 C 139.125 57.914062 139.214844 57.953125 139.300781 58 C 139.996094 58.390625 140.679688 58.808594 141.320312 59.324219 C 140.503906 59.222656 139.726562 59.019531 138.964844 58.789062 C 138.871094 58.757812 138.78125 58.726562 138.6875 58.695312 C 137.929688 60.363281 136.925781 61.921875 135.695312 63.332031 L 142.488281 71.984375 L 133.839844 65.191406 C 132.445312 66.40625 130.910156 67.398438 129.265625 68.152344 C 129.296875 68.246094 129.332031 68.335938 129.359375 68.429688 C 129.59375 69.191406 129.800781 69.964844 129.90625 70.78125 C 129.386719 70.144531 128.964844 69.460938 128.574219 68.765625 C 128.527344 68.679688 128.484375 68.59375 128.4375 68.507812 C 126.855469 69.144531 125.179688 69.5625 123.445312 69.753906 L 121.339844 81.792969 L 119.230469 69.753906 C 117.523438 69.566406 115.871094 69.15625 114.304688 68.535156 C 114.261719 68.621094 114.21875 68.710938 114.171875 68.792969 C 113.785156 69.492188 113.367188 70.175781 112.847656 70.8125 C 112.949219 69.996094 113.148438 69.222656 113.382812 68.457031 C 113.410156 68.367188 113.445312 68.273438 113.476562 68.179688 C 111.808594 67.425781 110.25 66.421875 108.839844 65.191406 L 100.1875 71.984375 L 106.980469 63.332031 C 105.765625 61.941406 104.773438 60.402344 104.023438 58.761719 C 103.929688 58.792969 103.835938 58.828125 103.742188 58.855469 C 102.984375 59.089844 102.207031 59.296875 101.390625 59.398438 C 102.027344 58.878906 102.710938 58.457031 103.40625 58.066406 C 103.492188 58.019531 103.578125 57.980469 103.664062 57.933594 C 103.027344 56.347656 102.609375 54.671875 102.417969 52.941406 L 90.378906 50.832031 L 102.417969 48.726562 C 102.605469 47.019531 103.015625 45.367188 103.636719 43.800781 C 103.550781 43.753906 103.464844 43.714844 103.378906 43.667969 C 102.683594 43.28125 102 42.863281 101.359375 42.34375 C 102.175781 42.441406 102.953125 42.644531 103.714844 42.875 C 103.808594 42.90625 103.898438 42.941406 103.992188 42.972656 C 104.75 41.304688 105.75 39.746094 106.980469 38.332031 L 100.1875 29.683594 L 108.839844 36.476562 C 110.234375 35.261719 111.769531 34.269531 113.410156 33.515625 C 113.382812 33.421875 113.34375 33.332031 113.316406 33.238281 C 113.082031 32.476562 112.875 31.703125 112.773438 30.886719 C 113.292969 31.523438 113.714844 32.203125 114.105469 32.898438 C 114.152344 32.984375 114.195312 33.074219 114.238281 33.160156 C 115.824219 32.523438 117.5 32.105469 119.230469 31.914062 L 121.339844 19.871094 L 123.445312 31.914062 C 125.15625 32.101562 126.808594 32.507812 128.375 33.132812 C 128.417969 33.046875 128.460938 32.957031 128.507812 32.871094 C 128.894531 32.175781 129.3125 31.492188 129.832031 30.851562 C 129.726562 31.671875 129.527344 32.445312 129.292969 33.207031 C 129.265625 33.300781 129.230469 33.390625 129.199219 33.484375 C 130.867188 34.242188 132.425781 35.246094 133.839844 36.476562 L 142.488281 29.683594 L 135.695312 38.332031 C 136.910156 39.726562 137.902344 41.265625 138.65625 42.90625 C 138.75 42.875 138.839844 42.839844 138.933594 42.8125 C 139.695312 42.578125 140.46875 42.371094 141.289062 42.265625 C 140.648438 42.789062 139.96875 43.207031 139.273438 43.597656 C 139.1875 43.644531 139.097656 43.6875 139.011719 43.734375 C 139.648438 45.320312 140.070312 46.992188 140.257812 48.726562 L 152.300781 50.832031 Z M 126.566406 47.160156 C 127.226562 48.097656 127.640625 49.214844 127.71875 50.425781 L 145.207031 50.425781 Z M 132.570312 55.605469 C 133.234375 55.6875 133.871094 55.835938 134.492188 56.015625 C 134.773438 55.308594 134.992188 54.578125 135.152344 53.835938 L 129.074219 54.898438 L 132.59375 59.382812 C 133.226562 58.550781 133.769531 57.65625 134.203125 56.710938 C 133.640625 56.382812 133.089844 56.027344 132.570312 55.605469 Z M 132.554688 46.019531 C 133.070312 45.59375 133.621094 45.238281 134.179688 44.910156 C 133.75 43.980469 133.214844 43.101562 132.59375 42.285156 L 129.070312 46.769531 L 135.152344 47.832031 C 134.988281 47.070312 134.761719 46.324219 134.472656 45.601562 C 133.851562 45.78125 133.214844 45.933594 132.554688 46.019531 Z M 138.285156 44.113281 C 137.90625 44.300781 137.523438 44.476562 137.136719 44.644531 C 136.519531 44.910156 135.894531 45.140625 135.257812 45.355469 C 135.59375 46.203125 135.847656 47.085938 136.019531 47.984375 L 139.417969 48.578125 C 139.226562 47.03125 138.847656 45.535156 138.285156 44.113281 Z M 135.179688 38.988281 L 133.117188 41.621094 C 133.820312 42.515625 134.417969 43.488281 134.898438 44.515625 C 135.488281 44.199219 136.089844 43.902344 136.703125 43.640625 C 137.089844 43.476562 137.484375 43.320312 137.878906 43.175781 C 137.183594 41.675781 136.28125 40.269531 135.179688 38.988281 Z M 125.5625 44.015625 L 125.949219 46.222656 L 128.15625 46.609375 L 137.640625 34.535156 Z M 126.113281 39.601562 C 126.195312 38.9375 126.34375 38.300781 126.519531 37.679688 C 125.8125 37.398438 125.085938 37.179688 124.339844 37.019531 L 125.402344 43.101562 L 129.886719 39.578125 C 129.054688 38.945312 128.160156 38.402344 127.214844 37.96875 C 126.886719 38.53125 126.535156 39.082031 126.113281 39.601562 Z M 127.609375 37.25 C 128.652344 37.734375 129.640625 38.34375 130.554688 39.058594 L 133.183594 36.992188 C 131.882812 35.878906 130.457031 34.964844 128.933594 34.265625 C 128.789062 34.660156 128.636719 35.054688 128.472656 35.441406 C 128.214844 36.054688 127.921875 36.65625 127.609375 37.25 Z M 123.59375 32.753906 L 124.1875 36.152344 C 125.070312 36.320312 125.933594 36.566406 126.765625 36.894531 C 126.976562 36.257812 127.207031 35.628906 127.46875 35.015625 C 127.632812 34.625 127.8125 34.242188 127.996094 33.863281 C 126.59375 33.3125 125.117188 32.941406 123.59375 32.753906 Z M 117.667969 45.605469 C 118.601562 44.945312 119.71875 44.53125 120.929688 44.457031 L 120.929688 26.964844 Z M 116.523438 39.621094 C 116.101562 39.101562 115.746094 38.550781 115.417969 37.992188 C 114.488281 38.421875 113.609375 38.957031 112.789062 39.578125 L 117.273438 43.101562 L 118.339844 37.019531 C 117.578125 37.183594 116.828125 37.410156 116.105469 37.699219 C 116.285156 38.320312 116.4375 38.957031 116.523438 39.621094 Z M 114.621094 33.886719 C 114.804688 34.265625 114.984375 34.648438 115.148438 35.035156 C 115.414062 35.652344 115.644531 36.277344 115.859375 36.914062 C 116.707031 36.582031 117.589844 36.324219 118.492188 36.152344 L 119.085938 32.753906 C 117.539062 32.945312 116.042969 33.324219 114.621094 33.886719 Z M 109.496094 36.992188 L 112.125 39.058594 C 113.023438 38.355469 113.992188 37.753906 115.019531 37.273438 C 114.707031 36.683594 114.410156 36.082031 114.148438 35.46875 C 113.980469 35.082031 113.824219 34.691406 113.679688 34.292969 C 112.179688 34.988281 110.777344 35.894531 109.496094 36.992188 Z M 114.523438 46.609375 L 116.726562 46.222656 L 117.113281 44.015625 L 105.039062 34.535156 Z M 110.105469 46.058594 C 109.445312 45.976562 108.808594 45.828125 108.183594 45.652344 C 107.90625 46.359375 107.6875 47.085938 107.523438 47.832031 L 113.605469 46.769531 L 110.085938 42.285156 C 109.449219 43.117188 108.90625 44.011719 108.476562 44.960938 C 109.035156 45.285156 109.585938 45.640625 110.105469 46.058594 Z M 104.773438 43.234375 C 105.167969 43.378906 105.558594 43.535156 105.945312 43.699219 C 106.5625 43.960938 107.164062 44.253906 107.757812 44.566406 C 108.238281 43.519531 108.847656 42.53125 109.5625 41.621094 L 107.496094 38.988281 C 106.382812 40.289062 105.46875 41.714844 104.773438 43.234375 Z M 103.261719 48.578125 L 106.65625 47.984375 C 106.828125 47.101562 107.074219 46.238281 107.398438 45.40625 C 106.761719 45.195312 106.136719 44.964844 105.519531 44.703125 C 105.132812 44.539062 104.746094 44.363281 104.367188 44.175781 C 103.816406 45.582031 103.445312 47.054688 103.261719 48.578125 Z M 116.109375 54.503906 C 115.453125 53.570312 115.039062 52.453125 114.960938 51.242188 L 97.46875 51.242188 Z M 110.125 55.648438 C 109.605469 56.070312 109.058594 56.425781 108.5 56.753906 C 108.925781 57.683594 109.460938 58.5625 110.085938 59.382812 L 113.605469 54.898438 L 107.523438 53.835938 C 107.691406 54.597656 107.917969 55.34375 108.207031 56.066406 C 108.828125 55.886719 109.460938 55.734375 110.125 55.648438 Z M 104.394531 57.550781 C 104.773438 57.367188 105.15625 57.1875 105.542969 57.023438 C 106.15625 56.757812 106.785156 56.527344 107.421875 56.3125 C 107.085938 55.464844 106.832031 54.582031 106.65625 53.683594 L 103.261719 53.085938 C 103.449219 54.632812 103.832031 56.128906 104.394531 57.550781 Z M 107.496094 62.675781 L 109.5625 60.046875 C 108.859375 59.148438 108.261719 58.179688 107.78125 57.152344 C 107.1875 57.46875 106.585938 57.761719 105.972656 58.027344 C 105.585938 58.191406 105.195312 58.347656 104.800781 58.492188 C 105.496094 59.992188 106.398438 61.394531 107.496094 62.675781 Z M 117.113281 57.652344 L 116.726562 55.445312 L 114.523438 55.058594 L 105.039062 67.132812 Z M 116.566406 62.066406 C 116.484375 62.730469 116.332031 63.363281 116.15625 63.988281 C 116.863281 64.265625 117.59375 64.484375 118.339844 64.648438 L 117.273438 58.566406 L 112.789062 62.089844 C 113.625 62.722656 114.519531 63.265625 115.464844 63.699219 C 115.792969 63.136719 116.144531 62.585938 116.566406 62.066406 Z M 115.070312 64.417969 C 114.027344 63.933594 113.039062 63.324219 112.125 62.609375 L 109.496094 64.675781 C 110.792969 65.789062 112.21875 66.703125 113.742188 67.402344 C 113.886719 67.003906 114.039062 66.613281 114.203125 66.226562 C 114.464844 65.613281 114.757812 65.007812 115.070312 64.417969 Z M 119.085938 68.914062 L 118.492188 65.515625 C 117.609375 65.34375 116.746094 65.097656 115.910156 64.773438 C 115.699219 65.410156 115.46875 66.039062 115.210938 66.652344 C 115.042969 67.042969 114.867188 67.425781 114.683594 67.804688 C 116.085938 68.355469 117.5625 68.726562 119.085938 68.914062 Z M 121.339844 55.589844 C 122.132812 55.589844 122.878906 55.390625 123.535156 55.046875 L 123.53125 55.035156 L 123.570312 55.03125 C 124.40625 54.585938 125.089844 53.898438 125.535156 53.066406 L 125.542969 53.027344 L 125.550781 53.027344 C 125.898438 52.371094 126.09375 51.625 126.09375 50.832031 C 126.09375 50.042969 125.898438 49.296875 125.550781 48.636719 L 125.542969 48.640625 L 125.535156 48.601562 C 125.089844 47.769531 124.402344 47.082031 123.570312 46.636719 L 123.53125 46.628906 L 123.535156 46.621094 C 122.878906 46.277344 122.132812 46.078125 121.339844 46.078125 C 120.546875 46.078125 119.800781 46.277344 119.144531 46.621094 L 119.144531 46.628906 L 119.109375 46.636719 C 118.273438 47.082031 117.589844 47.769531 117.144531 48.601562 L 117.136719 48.640625 L 117.125 48.636719 C 116.78125 49.296875 116.585938 50.042969 116.585938 50.832031 C 116.585938 51.625 116.78125 52.371094 117.125 53.027344 L 117.136719 53.027344 L 117.144531 53.066406 C 117.589844 53.898438 118.273438 54.585938 119.109375 55.03125 L 119.144531 55.035156 L 119.144531 55.046875 C 119.800781 55.390625 120.546875 55.589844 121.339844 55.589844 Z M 126.15625 62.046875 C 126.578125 62.566406 126.933594 63.113281 127.261719 63.671875 C 128.191406 63.246094 129.070312 62.710938 129.886719 62.089844 L 125.402344 58.566406 L 124.339844 64.648438 C 125.101562 64.480469 125.847656 64.253906 126.570312 63.96875 C 126.390625 63.34375 126.238281 62.710938 126.15625 62.046875 Z M 125.011719 56.0625 C 124.074219 56.71875 122.957031 57.136719 121.75 57.210938 L 121.75 74.703125 Z M 128.058594 67.777344 C 127.871094 67.398438 127.695312 67.015625 127.527344 66.628906 C 127.265625 66.015625 127.03125 65.386719 126.816406 64.75 C 125.96875 65.085938 125.085938 65.339844 124.1875 65.515625 L 123.59375 68.914062 C 125.140625 68.722656 126.636719 68.34375 128.058594 67.777344 Z M 133.183594 64.675781 L 130.554688 62.609375 C 129.65625 63.3125 128.683594 63.910156 127.660156 64.390625 C 127.972656 64.984375 128.269531 65.585938 128.53125 66.199219 C 128.695312 66.585938 128.851562 66.976562 128.996094 67.371094 C 130.496094 66.675781 131.902344 65.773438 133.183594 64.675781 Z M 128.15625 55.058594 L 125.949219 55.445312 L 125.5625 57.652344 L 137.640625 67.132812 Z M 137.90625 58.429688 C 137.511719 58.285156 137.121094 58.132812 136.730469 57.96875 C 136.117188 57.707031 135.515625 57.414062 134.921875 57.101562 C 134.4375 58.148438 133.832031 59.136719 133.117188 60.046875 L 135.179688 62.675781 C 136.296875 61.378906 137.207031 59.953125 137.90625 58.429688 Z M 139.417969 53.085938 L 136.019531 53.683594 C 135.851562 54.5625 135.605469 55.425781 135.277344 56.261719 C 135.914062 56.46875 136.542969 56.699219 137.160156 56.964844 C 137.546875 57.128906 137.929688 57.304688 138.308594 57.492188 C 138.859375 56.085938 139.230469 54.613281 139.417969 53.085938 Z M 139.417969 53.085938 " fill-opacity="1" fill-rule="nonzero"/><g fill="#000000" fill-opacity="1"><g transform="translate(72.266611, 115.576356)"><g><path d="M 3.765625 -0.609375 L 3.671875 -0.609375 C 3.597656 -0.484375 3.515625 -0.375 3.421875 -0.28125 C 3.328125 -0.195312 3.222656 -0.125 3.109375 -0.0625 C 2.992188 0 2.867188 0.0390625 2.734375 0.0625 C 2.609375 0.09375 2.488281 0.109375 2.375 0.109375 C 2.101562 0.109375 1.851562 0.0664062 1.625 -0.015625 C 1.394531 -0.109375 1.191406 -0.238281 1.015625 -0.40625 C 0.847656 -0.582031 0.710938 -0.796875 0.609375 -1.046875 C 0.515625 -1.296875 0.46875 -1.585938 0.46875 -1.921875 L 0.46875 -2.046875 C 0.46875 -2.359375 0.519531 -2.640625 0.625 -2.890625 C 0.726562 -3.148438 0.863281 -3.363281 1.03125 -3.53125 C 1.195312 -3.707031 1.394531 -3.84375 1.625 -3.9375 C 1.851562 -4.03125 2.097656 -4.078125 2.359375 -4.078125 C 2.628906 -4.078125 2.878906 -4.015625 3.109375 -3.890625 C 3.347656 -3.773438 3.535156 -3.59375 3.671875 -3.34375 L 3.765625 -3.34375 L 3.765625 -5.59375 L 4.390625 -5.59375 L 4.390625 0 L 3.765625 0 Z M 2.4375 -0.484375 C 2.625 -0.484375 2.796875 -0.515625 2.953125 -0.578125 C 3.109375 -0.648438 3.242188 -0.75 3.359375 -0.875 C 3.484375 -1 3.582031 -1.148438 3.65625 -1.328125 C 3.726562 -1.515625 3.765625 -1.71875 3.765625 -1.9375 L 3.765625 -2.03125 C 3.765625 -2.238281 3.726562 -2.429688 3.65625 -2.609375 C 3.582031 -2.785156 3.484375 -2.9375 3.359375 -3.0625 C 3.242188 -3.195312 3.101562 -3.300781 2.9375 -3.375 C 2.78125 -3.445312 2.613281 -3.484375 2.4375 -3.484375 C 2.25 -3.484375 2.070312 -3.445312 1.90625 -3.375 C 1.75 -3.3125 1.609375 -3.210938 1.484375 -3.078125 C 1.367188 -2.953125 1.273438 -2.800781 1.203125 -2.625 C 1.140625 -2.445312 1.109375 -2.253906 1.109375 -2.046875 L 1.109375 -1.921875 C 1.109375 -1.691406 1.140625 -1.488281 1.203125 -1.3125 C 1.273438 -1.132812 1.367188 -0.984375 1.484375 -0.859375 C 1.609375 -0.734375 1.75 -0.640625 1.90625 -0.578125 C 2.0625 -0.515625 2.238281 -0.484375 2.4375 -0.484375 Z M 2.4375 -0.484375 "/></g></g></g><g fill="#000000" fill-opacity="1"><g transform="translate(77.154042, 115.576356)"><g><path d="M 1.921875 -5.140625 C 1.921875 -5.296875 1.972656 -5.425781 2.078125 -5.53125 C 2.191406 -5.644531 2.328125 -5.703125 2.484375 -5.703125 C 2.640625 -5.703125 2.769531 -5.644531 2.875 -5.53125 C 2.988281 -5.425781 3.046875 -5.296875 3.046875 -5.140625 C 3.046875 -4.984375 2.988281 -4.847656 2.875 -4.734375 C 2.769531 -4.628906 2.640625 -4.578125 2.484375 -4.578125 C 2.328125 -4.578125 2.191406 -4.628906 2.078125 -4.734375 C 1.972656 -4.847656 1.921875 -4.984375 1.921875 -5.140625 Z M 0.796875 -0.578125 L 2.1875 -0.578125 L 2.1875 -3.390625 L 0.9375 -3.390625 L 0.9375 -3.953125 L 2.796875 -3.953125 L 2.796875 -0.578125 L 4.09375 -0.578125 L 4.09375 0 L 0.796875 0 Z M 0.796875 -0.578125 "/></g></g></g><g fill="#000000" fill-opacity="1"><g transform="translate(82.041472, 115.576356)"><g><path d="M 4.5 0 L 3.875 0 L 3.875 -2.84375 C 3.875 -3.03125 3.832031 -3.179688 3.75 -3.296875 C 3.664062 -3.421875 3.53125 -3.484375 3.34375 -3.484375 C 3.164062 -3.484375 3.019531 -3.414062 2.90625 -3.28125 C 2.800781 -3.15625 2.75 -2.957031 2.75 -2.6875 L 2.75 0 L 2.125 0 L 2.125 -2.875 C 2.125 -3.050781 2.078125 -3.195312 1.984375 -3.3125 C 1.890625 -3.425781 1.765625 -3.484375 1.609375 -3.484375 C 1.410156 -3.484375 1.257812 -3.410156 1.15625 -3.265625 C 1.050781 -3.128906 1 -2.953125 1 -2.734375 L 1 0 L 0.390625 0 L 0.390625 -3.953125 L 1 -3.953125 L 1 -3.53125 L 1.109375 -3.53125 C 1.171875 -3.71875 1.269531 -3.851562 1.40625 -3.9375 C 1.539062 -4.03125 1.695312 -4.078125 1.875 -4.078125 C 2.0625 -4.078125 2.21875 -4.023438 2.34375 -3.921875 C 2.46875 -3.816406 2.554688 -3.6875 2.609375 -3.53125 L 2.703125 -3.53125 C 2.890625 -3.894531 3.175781 -4.078125 3.5625 -4.078125 C 3.863281 -4.078125 4.09375 -3.976562 4.25 -3.78125 C 4.414062 -3.59375 4.5 -3.347656 4.5 -3.046875 Z M 4.5 0 "/></g></g></g><g fill="#000000" fill-opacity="1"><g transform="translate(86.928902, 115.576356)"><g><path d="M 1.921875 -5.140625 C 1.921875 -5.296875 1.972656 -5.425781 2.078125 -5.53125 C 2.191406 -5.644531 2.328125 -5.703125 2.484375 -5.703125 C 2.640625 -5.703125 2.769531 -5.644531 2.875 -5.53125 C 2.988281 -5.425781 3.046875 -5.296875 3.046875 -5.140625 C 3.046875 -4.984375 2.988281 -4.847656 2.875 -4.734375 C 2.769531 -4.628906 2.640625 -4.578125 2.484375 -4.578125 C 2.328125 -4.578125 2.191406 -4.628906 2.078125 -4.734375 C 1.972656 -4.847656 1.921875 -4.984375 1.921875 -5.140625 Z M 0.796875 -0.578125 L 2.1875 -0.578125 L 2.1875 -3.390625 L 0.9375 -3.390625 L 0.9375 -3.953125 L 2.796875 -3.953125 L 2.796875 -0.578125 L 4.09375 -0.578125 L 4.09375 0 L 0.796875 0 Z M 0.796875 -0.578125 "/></g></g></g><g fill="#000000" fill-opacity="1"><g transform="translate(91.816332, 115.576356)"><g><path d="M 0.5625 -3.953125 L 1.796875 -3.953125 L 1.796875 -5.59375 L 2.421875 -5.59375 L 2.421875 -3.953125 L 3.953125 -3.953125 L 3.953125 -3.390625 L 2.421875 -3.390625 L 2.421875 -0.8125 C 2.421875 -0.65625 2.492188 -0.578125 2.640625 -0.578125 L 3.765625 -0.578125 L 3.765625 0 L 2.421875 0 C 2.234375 0 2.082031 -0.0546875 1.96875 -0.171875 C 1.851562 -0.285156 1.796875 -0.4375 1.796875 -0.625 L 1.796875 -3.390625 L 0.5625 -3.390625 Z M 0.5625 -3.953125 "/></g></g></g><g fill="#000000" fill-opacity="1"><g transform="translate(96.703762, 115.576356)"><g><path d="M 0.46875 -3.953125 L 1.90625 -3.953125 L 1.90625 -3.4375 L 2 -3.4375 C 2.101562 -3.65625 2.25 -3.816406 2.4375 -3.921875 C 2.625 -4.023438 2.835938 -4.078125 3.078125 -4.078125 C 3.472656 -4.078125 3.789062 -3.945312 4.03125 -3.6875 C 4.28125 -3.425781 4.414062 -3.039062 4.4375 -2.53125 L 3.78125 -2.4375 C 3.78125 -2.8125 3.691406 -3.078125 3.515625 -3.234375 C 3.335938 -3.398438 3.117188 -3.484375 2.859375 -3.484375 C 2.703125 -3.484375 2.5625 -3.453125 2.4375 -3.390625 C 2.320312 -3.328125 2.222656 -3.238281 2.140625 -3.125 C 2.054688 -3.007812 1.992188 -2.875 1.953125 -2.71875 C 1.921875 -2.570312 1.90625 -2.414062 1.90625 -2.25 L 1.90625 -0.578125 L 2.921875 -0.578125 L 2.921875 0 L 0.375 0 L 0.375 -0.578125 L 1.28125 -0.578125 L 1.28125 -3.390625 L 0.46875 -3.390625 Z M 0.46875 -3.953125 "/></g></g></g><g fill="#000000" fill-opacity="1"><g transform="translate(101.591192, 115.576356)"><g><path d="M 1.921875 -5.140625 C 1.921875 -5.296875 1.972656 -5.425781 2.078125 -5.53125 C 2.191406 -5.644531 2.328125 -5.703125 2.484375 -5.703125 C 2.640625 -5.703125 2.769531 -5.644531 2.875 -5.53125 C 2.988281 -5.425781 3.046875 -5.296875 3.046875 -5.140625 C 3.046875 -4.984375 2.988281 -4.847656 2.875 -4.734375 C 2.769531 -4.628906 2.640625 -4.578125 2.484375 -4.578125 C 2.328125 -4.578125 2.191406 -4.628906 2.078125 -4.734375 C 1.972656 -4.847656 1.921875 -4.984375 1.921875 -5.140625 Z M 0.796875 -0.578125 L 2.1875 -0.578125 L 2.1875 -3.390625 L 0.9375 -3.390625 L 0.9375 -3.953125 L 2.796875 -3.953125 L 2.796875 -0.578125 L 4.09375 -0.578125 L 4.09375 0 L 0.796875 0 Z M 0.796875 -0.578125 "/></g></g></g><g fill="#000000" fill-opacity="1"><g transform="translate(106.478622, 115.576356)"><g><path d="M 1.515625 -2.9375 C 1.515625 -2.75 1.59375 -2.601562 1.75 -2.5 C 1.914062 -2.394531 2.21875 -2.328125 2.65625 -2.296875 C 3.113281 -2.265625 3.460938 -2.15625 3.703125 -1.96875 C 3.953125 -1.78125 4.078125 -1.515625 4.078125 -1.171875 L 4.078125 -1.125 C 4.078125 -0.925781 4.035156 -0.75 3.953125 -0.59375 C 3.878906 -0.445312 3.773438 -0.320312 3.640625 -0.21875 C 3.503906 -0.113281 3.335938 -0.0351562 3.140625 0.015625 C 2.941406 0.078125 2.726562 0.109375 2.5 0.109375 C 2.195312 0.109375 1.929688 0.0664062 1.703125 -0.015625 C 1.484375 -0.0976562 1.300781 -0.207031 1.15625 -0.34375 C 1.007812 -0.476562 0.898438 -0.628906 0.828125 -0.796875 C 0.753906 -0.972656 0.710938 -1.148438 0.703125 -1.328125 L 1.296875 -1.46875 C 1.316406 -1.164062 1.429688 -0.921875 1.640625 -0.734375 C 1.847656 -0.554688 2.125 -0.46875 2.46875 -0.46875 C 2.769531 -0.46875 3.007812 -0.523438 3.1875 -0.640625 C 3.363281 -0.753906 3.453125 -0.914062 3.453125 -1.125 C 3.453125 -1.34375 3.363281 -1.5 3.1875 -1.59375 C 3.007812 -1.6875 2.722656 -1.75 2.328125 -1.78125 C 1.867188 -1.8125 1.515625 -1.914062 1.265625 -2.09375 C 1.023438 -2.28125 0.90625 -2.546875 0.90625 -2.890625 L 0.90625 -2.9375 C 0.90625 -3.125 0.945312 -3.285156 1.03125 -3.421875 C 1.113281 -3.566406 1.222656 -3.6875 1.359375 -3.78125 C 1.492188 -3.875 1.644531 -3.945312 1.8125 -4 C 1.976562 -4.050781 2.15625 -4.078125 2.34375 -4.078125 C 2.601562 -4.078125 2.832031 -4.039062 3.03125 -3.96875 C 3.226562 -3.894531 3.394531 -3.800781 3.53125 -3.6875 C 3.664062 -3.570312 3.765625 -3.4375 3.828125 -3.28125 C 3.898438 -3.132812 3.945312 -2.988281 3.96875 -2.84375 L 3.390625 -2.703125 C 3.359375 -2.953125 3.253906 -3.148438 3.078125 -3.296875 C 2.898438 -3.441406 2.664062 -3.515625 2.375 -3.515625 C 2.269531 -3.515625 2.164062 -3.5 2.0625 -3.46875 C 1.957031 -3.445312 1.863281 -3.410156 1.78125 -3.359375 C 1.695312 -3.316406 1.628906 -3.257812 1.578125 -3.1875 C 1.535156 -3.113281 1.515625 -3.03125 1.515625 -2.9375 Z M 1.515625 -2.9375 "/></g></g></g><g fill="#000000" fill-opacity="1"><g transform="translate(125.893153, 124.805614)"><g><path d="M 1.71875 -2.3125 L 1.859375 -2.3125 L 3.359375 -3.953125 L 4.125 -3.953125 L 4.125 -3.90625 L 2.484375 -2.09375 L 2.484375 -1.953125 L 4.3125 -0.046875 L 4.3125 0 L 3.546875 0 L 1.875 -1.734375 L 1.71875 -1.734375 L 1.71875 0 L 1.09375 0 L 1.09375 -5.59375 L 1.71875 -5.59375 Z M 1.71875 -2.3125 "/></g></g></g><g fill="#000000" fill-opacity="1"><g transform="translate(130.780563, 124.805614)"><g><path d="M 3.5625 -0.671875 L 3.46875 -0.671875 C 3.34375 -0.398438 3.164062 -0.203125 2.9375 -0.078125 C 2.71875 0.046875 2.484375 0.109375 2.234375 0.109375 C 1.972656 0.109375 1.726562 0.0664062 1.5 -0.015625 C 1.28125 -0.109375 1.082031 -0.238281 0.90625 -0.40625 C 0.738281 -0.582031 0.609375 -0.796875 0.515625 -1.046875 C 0.421875 -1.296875 0.375 -1.585938 0.375 -1.921875 L 0.375 -2.046875 C 0.375 -2.367188 0.421875 -2.65625 0.515625 -2.90625 C 0.609375 -3.15625 0.738281 -3.363281 0.90625 -3.53125 C 1.082031 -3.707031 1.28125 -3.84375 1.5 -3.9375 C 1.726562 -4.03125 1.96875 -4.078125 2.21875 -4.078125 C 2.488281 -4.078125 2.734375 -4.015625 2.953125 -3.890625 C 3.171875 -3.773438 3.34375 -3.59375 3.46875 -3.34375 L 3.5625 -3.34375 L 3.5625 -3.953125 L 4.1875 -3.953125 L 4.1875 -0.8125 C 4.1875 -0.65625 4.257812 -0.578125 4.40625 -0.578125 L 4.609375 -0.578125 L 4.609375 0 L 4.1875 0 C 4 0 3.847656 -0.0546875 3.734375 -0.171875 C 3.617188 -0.285156 3.5625 -0.4375 3.5625 -0.625 Z M 2.296875 -0.484375 C 2.484375 -0.484375 2.65625 -0.515625 2.8125 -0.578125 C 2.96875 -0.648438 3.097656 -0.75 3.203125 -0.875 C 3.316406 -1 3.40625 -1.148438 3.46875 -1.328125 C 3.53125 -1.515625 3.5625 -1.71875 3.5625 -1.9375 L 3.5625 -2.03125 C 3.5625 -2.238281 3.53125 -2.429688 3.46875 -2.609375 C 3.40625 -2.785156 3.316406 -2.9375 3.203125 -3.0625 C 3.085938 -3.195312 2.953125 -3.300781 2.796875 -3.375 C 2.640625 -3.445312 2.472656 -3.484375 2.296875 -3.484375 C 2.109375 -3.484375 1.9375 -3.445312 1.78125 -3.375 C 1.625 -3.3125 1.488281 -3.210938 1.375 -3.078125 C 1.257812 -2.953125 1.171875 -2.800781 1.109375 -2.625 C 1.046875 -2.445312 1.015625 -2.253906 1.015625 -2.046875 L 1.015625 -1.921875 C 1.015625 -1.460938 1.128906 -1.109375 1.359375 -0.859375 C 1.597656 -0.609375 1.910156 -0.484375 2.296875 -0.484375 Z M 2.296875 -0.484375 "/></g></g></g><g fill="#000000" fill-opacity="1"><g transform="translate(135.667974, 124.805614)"><g><path d="M 0.65625 -3.953125 L 1.875 -3.953125 L 1.875 -4.96875 C 1.875 -5.144531 1.929688 -5.289062 2.046875 -5.40625 C 2.160156 -5.53125 2.304688 -5.59375 2.484375 -5.59375 L 4.0625 -5.59375 L 4.0625 -5.015625 L 2.71875 -5.015625 C 2.570312 -5.015625 2.5 -4.9375 2.5 -4.78125 L 2.5 -3.953125 L 4.15625 -3.953125 L 4.15625 -3.390625 L 2.5 -3.390625 L 2.5 0 L 1.875 0 L 1.875 -3.390625 L 0.65625 -3.390625 Z M 0.65625 -3.953125 "/></g></g></g><g fill="#000000" fill-opacity="1"><g transform="translate(140.555384, 124.805614)"><g><path d="M 1.15625 -1.78125 C 1.164062 -1.394531 1.285156 -1.082031 1.515625 -0.84375 C 1.742188 -0.601562 2.0625 -0.484375 2.46875 -0.484375 C 2.65625 -0.484375 2.816406 -0.503906 2.953125 -0.546875 C 3.097656 -0.585938 3.21875 -0.644531 3.3125 -0.71875 C 3.414062 -0.789062 3.5 -0.875 3.5625 -0.96875 C 3.625 -1.070312 3.671875 -1.179688 3.703125 -1.296875 L 4.296875 -1.140625 C 4.179688 -0.765625 3.972656 -0.460938 3.671875 -0.234375 C 3.367188 -0.00390625 2.960938 0.109375 2.453125 0.109375 C 2.171875 0.109375 1.910156 0.0625 1.671875 -0.03125 C 1.441406 -0.132812 1.238281 -0.273438 1.0625 -0.453125 C 0.894531 -0.640625 0.765625 -0.859375 0.671875 -1.109375 C 0.578125 -1.359375 0.53125 -1.632812 0.53125 -1.9375 L 0.53125 -2.125 C 0.53125 -2.394531 0.578125 -2.648438 0.671875 -2.890625 C 0.773438 -3.128906 0.910156 -3.335938 1.078125 -3.515625 C 1.253906 -3.691406 1.460938 -3.828125 1.703125 -3.921875 C 1.941406 -4.023438 2.195312 -4.078125 2.46875 -4.078125 C 2.800781 -4.078125 3.082031 -4.015625 3.3125 -3.890625 C 3.550781 -3.773438 3.742188 -3.628906 3.890625 -3.453125 C 4.046875 -3.273438 4.160156 -3.082031 4.234375 -2.875 C 4.304688 -2.664062 4.34375 -2.472656 4.34375 -2.296875 L 4.34375 -1.78125 Z M 2.46875 -3.484375 C 2.300781 -3.484375 2.140625 -3.453125 1.984375 -3.390625 C 1.828125 -3.335938 1.691406 -3.257812 1.578125 -3.15625 C 1.460938 -3.0625 1.367188 -2.945312 1.296875 -2.8125 C 1.234375 -2.675781 1.191406 -2.523438 1.171875 -2.359375 L 3.71875 -2.359375 C 3.707031 -2.535156 3.664062 -2.691406 3.59375 -2.828125 C 3.519531 -2.960938 3.425781 -3.078125 3.3125 -3.171875 C 3.195312 -3.273438 3.066406 -3.351562 2.921875 -3.40625 C 2.773438 -3.457031 2.625 -3.484375 2.46875 -3.484375 Z M 2.46875 -3.484375 "/></g></g></g><g fill="#000000" fill-opacity="1"><g transform="translate(145.442795, 124.805614)"><g><path d="M 0.5625 -3.953125 L 1.796875 -3.953125 L 1.796875 -5.59375 L 2.421875 -5.59375 L 2.421875 -3.953125 L 3.953125 -3.953125 L 3.953125 -3.390625 L 2.421875 -3.390625 L 2.421875 -0.8125 C 2.421875 -0.65625 2.492188 -0.578125 2.640625 -0.578125 L 3.765625 -0.578125 L 3.765625 0 L 2.421875 0 C 2.234375 0 2.082031 -0.0546875 1.96875 -0.171875 C 1.851562 -0.285156 1.796875 -0.4375 1.796875 -0.625 L 1.796875 -3.390625 L 0.5625 -3.390625 Z M 0.5625 -3.953125 "/></g></g></g><g fill="#000000" fill-opacity="1"><g transform="translate(150.330205, 124.805614)"><g><path d="M 4.171875 -0.578125 L 4.171875 0 L 0.734375 0 L 0.734375 -0.984375 L 3.546875 -3.296875 L 3.546875 -3.390625 L 0.78125 -3.390625 L 0.78125 -3.953125 L 4.078125 -3.953125 L 4.078125 -3 L 1.234375 -0.671875 L 1.234375 -0.578125 Z M 4.171875 -0.578125 "/></g></g></g><g fill="#000000" fill-opacity="1"><g transform="translate(155.217616, 124.805614)"><g><path d="M 1.921875 -5.140625 C 1.921875 -5.296875 1.972656 -5.425781 2.078125 -5.53125 C 2.191406 -5.644531 2.328125 -5.703125 2.484375 -5.703125 C 2.640625 -5.703125 2.769531 -5.644531 2.875 -5.53125 C 2.988281 -5.425781 3.046875 -5.296875 3.046875 -5.140625 C 3.046875 -4.984375 2.988281 -4.847656 2.875 -4.734375 C 2.769531 -4.628906 2.640625 -4.578125 2.484375 -4.578125 C 2.328125 -4.578125 2.191406 -4.628906 2.078125 -4.734375 C 1.972656 -4.847656 1.921875 -4.984375 1.921875 -5.140625 Z M 0.796875 -0.578125 L 2.1875 -0.578125 L 2.1875 -3.390625 L 0.9375 -3.390625 L 0.9375 -3.953125 L 2.796875 -3.953125 L 2.796875 -0.578125 L 4.09375 -0.578125 L 4.09375 0 L 0.796875 0 Z M 0.796875 -0.578125 "/></g></g></g><g fill="#000000" fill-opacity="1"><g transform="translate(160.105026, 124.805614)"><g><path d="M 1.515625 -2.9375 C 1.515625 -2.75 1.59375 -2.601562 1.75 -2.5 C 1.914062 -2.394531 2.21875 -2.328125 2.65625 -2.296875 C 3.113281 -2.265625 3.460938 -2.15625 3.703125 -1.96875 C 3.953125 -1.78125 4.078125 -1.515625 4.078125 -1.171875 L 4.078125 -1.125 C 4.078125 -0.925781 4.035156 -0.75 3.953125 -0.59375 C 3.878906 -0.445312 3.773438 -0.320312 3.640625 -0.21875 C 3.503906 -0.113281 3.335938 -0.0351562 3.140625 0.015625 C 2.941406 0.078125 2.726562 0.109375 2.5 0.109375 C 2.195312 0.109375 1.929688 0.0664062 1.703125 -0.015625 C 1.484375 -0.0976562 1.300781 -0.207031 1.15625 -0.34375 C 1.007812 -0.476562 0.898438 -0.628906 0.828125 -0.796875 C 0.753906 -0.972656 0.710938 -1.148438 0.703125 -1.328125 L 1.296875 -1.46875 C 1.316406 -1.164062 1.429688 -0.921875 1.640625 -0.734375 C 1.847656 -0.554688 2.125 -0.46875 2.46875 -0.46875 C 2.769531 -0.46875 3.007812 -0.523438 3.1875 -0.640625 C 3.363281 -0.753906 3.453125 -0.914062 3.453125 -1.125 C 3.453125 -1.34375 3.363281 -1.5 3.1875 -1.59375 C 3.007812 -1.6875 2.722656 -1.75 2.328125 -1.78125 C 1.867188 -1.8125 1.515625 -1.914062 1.265625 -2.09375 C 1.023438 -2.28125 0.90625 -2.546875 0.90625 -2.890625 L 0.90625 -2.9375 C 0.90625 -3.125 0.945312 -3.285156 1.03125 -3.421875 C 1.113281 -3.566406 1.222656 -3.6875 1.359375 -3.78125 C 1.492188 -3.875 1.644531 -3.945312 1.8125 -4 C 1.976562 -4.050781 2.15625 -4.078125 2.34375 -4.078125 C 2.601562 -4.078125 2.832031 -4.039062 3.03125 -3.96875 C 3.226562 -3.894531 3.394531 -3.800781 3.53125 -3.6875 C 3.664062 -3.570312 3.765625 -3.4375 3.828125 -3.28125 C 3.898438 -3.132812 3.945312 -2.988281 3.96875 -2.84375 L 3.390625 -2.703125 C 3.359375 -2.953125 3.253906 -3.148438 3.078125 -3.296875 C 2.898438 -3.441406 2.664062 -3.515625 2.375 -3.515625 C 2.269531 -3.515625 2.164062 -3.5 2.0625 -3.46875 C 1.957031 -3.445312 1.863281 -3.410156 1.78125 -3.359375 C 1.695312 -3.316406 1.628906 -3.257812 1.578125 -3.1875 C 1.535156 -3.113281 1.515625 -3.03125 1.515625 -2.9375 Z M 1.515625 -2.9375 "/></g></g></g><g fill="#000000" fill-opacity="1"><g transform="translate(164.992436, 124.805614)"><g><path d="M 1.890625 -0.453125 C 1.890625 -0.597656 1.941406 -0.722656 2.046875 -0.828125 C 2.160156 -0.941406 2.289062 -1 2.4375 -1 C 2.59375 -1 2.722656 -0.941406 2.828125 -0.828125 C 2.941406 -0.722656 3 -0.597656 3 -0.453125 C 3 -0.296875 2.941406 -0.160156 2.828125 -0.046875 C 2.722656 0.0546875 2.59375 0.109375 2.4375 0.109375 C 2.289062 0.109375 2.160156 0.0546875 2.046875 -0.046875 C 1.941406 -0.160156 1.890625 -0.296875 1.890625 -0.453125 Z M 1.890625 -0.453125 "/></g></g></g><g fill="#000000" fill-opacity="1"><g transform="translate(169.879847, 124.805614)"><g><path d="M 3.765625 -0.609375 L 3.671875 -0.609375 C 3.597656 -0.484375 3.515625 -0.375 3.421875 -0.28125 C 3.328125 -0.195312 3.222656 -0.125 3.109375 -0.0625 C 2.992188 0 2.867188 0.0390625 2.734375 0.0625 C 2.609375 0.09375 2.488281 0.109375 2.375 0.109375 C 2.101562 0.109375 1.851562 0.0664062 1.625 -0.015625 C 1.394531 -0.109375 1.191406 -0.238281 1.015625 -0.40625 C 0.847656 -0.582031 0.710938 -0.796875 0.609375 -1.046875 C 0.515625 -1.296875 0.46875 -1.585938 0.46875 -1.921875 L 0.46875 -2.046875 C 0.46875 -2.359375 0.519531 -2.640625 0.625 -2.890625 C 0.726562 -3.148438 0.863281 -3.363281 1.03125 -3.53125 C 1.195312 -3.707031 1.394531 -3.84375 1.625 -3.9375 C 1.851562 -4.03125 2.097656 -4.078125 2.359375 -4.078125 C 2.628906 -4.078125 2.878906 -4.015625 3.109375 -3.890625 C 3.347656 -3.773438 3.535156 -3.59375 3.671875 -3.34375 L 3.765625 -3.34375 L 3.765625 -5.59375 L 4.390625 -5.59375 L 4.390625 0 L 3.765625 0 Z M 2.4375 -0.484375 C 2.625 -0.484375 2.796875 -0.515625 2.953125 -0.578125 C 3.109375 -0.648438 3.242188 -0.75 3.359375 -0.875 C 3.484375 -1 3.582031 -1.148438 3.65625 -1.328125 C 3.726562 -1.515625 3.765625 -1.71875 3.765625 -1.9375 L 3.765625 -2.03125 C 3.765625 -2.238281 3.726562 -2.429688 3.65625 -2.609375 C 3.582031 -2.785156 3.484375 -2.9375 3.359375 -3.0625 C 3.242188 -3.195312 3.101562 -3.300781 2.9375 -3.375 C 2.78125 -3.445312 2.613281 -3.484375 2.4375 -3.484375 C 2.25 -3.484375 2.070312 -3.445312 1.90625 -3.375 C 1.75 -3.3125 1.609375 -3.210938 1.484375 -3.078125 C 1.367188 -2.953125 1.273438 -2.800781 1.203125 -2.625 C 1.140625 -2.445312 1.109375 -2.253906 1.109375 -2.046875 L 1.109375 -1.921875 C 1.109375 -1.691406 1.140625 -1.488281 1.203125 -1.3125 C 1.273438 -1.132812 1.367188 -0.984375 1.484375 -0.859375 C 1.609375 -0.734375 1.75 -0.640625 1.90625 -0.578125 C 2.0625 -0.515625 2.238281 -0.484375 2.4375 -0.484375 Z M 2.4375 -0.484375 "/></g></g></g><g fill="#000000" fill-opacity="1"><g transform="translate(174.767257, 124.805614)"><g><path d="M 1.15625 -1.78125 C 1.164062 -1.394531 1.285156 -1.082031 1.515625 -0.84375 C 1.742188 -0.601562 2.0625 -0.484375 2.46875 -0.484375 C 2.65625 -0.484375 2.816406 -0.503906 2.953125 -0.546875 C 3.097656 -0.585938 3.21875 -0.644531 3.3125 -0.71875 C 3.414062 -0.789062 3.5 -0.875 3.5625 -0.96875 C 3.625 -1.070312 3.671875 -1.179688 3.703125 -1.296875 L 4.296875 -1.140625 C 4.179688 -0.765625 3.972656 -0.460938 3.671875 -0.234375 C 3.367188 -0.00390625 2.960938 0.109375 2.453125 0.109375 C 2.171875 0.109375 1.910156 0.0625 1.671875 -0.03125 C 1.441406 -0.132812 1.238281 -0.273438 1.0625 -0.453125 C 0.894531 -0.640625 0.765625 -0.859375 0.671875 -1.109375 C 0.578125 -1.359375 0.53125 -1.632812 0.53125 -1.9375 L 0.53125 -2.125 C 0.53125 -2.394531 0.578125 -2.648438 0.671875 -2.890625 C 0.773438 -3.128906 0.910156 -3.335938 1.078125 -3.515625 C 1.253906 -3.691406 1.460938 -3.828125 1.703125 -3.921875 C 1.941406 -4.023438 2.195312 -4.078125 2.46875 -4.078125 C 2.800781 -4.078125 3.082031 -4.015625 3.3125 -3.890625 C 3.550781 -3.773438 3.742188 -3.628906 3.890625 -3.453125 C 4.046875 -3.273438 4.160156 -3.082031 4.234375 -2.875 C 4.304688 -2.664062 4.34375 -2.472656 4.34375 -2.296875 L 4.34375 -1.78125 Z M 2.46875 -3.484375 C 2.300781 -3.484375 2.140625 -3.453125 1.984375 -3.390625 C 1.828125 -3.335938 1.691406 -3.257812 1.578125 -3.15625 C 1.460938 -3.0625 1.367188 -2.945312 1.296875 -2.8125 C 1.234375 -2.675781 1.191406 -2.523438 1.171875 -2.359375 L 3.71875 -2.359375 C 3.707031 -2.535156 3.664062 -2.691406 3.59375 -2.828125 C 3.519531 -2.960938 3.425781 -3.078125 3.3125 -3.171875 C 3.195312 -3.273438 3.066406 -3.351562 2.921875 -3.40625 C 2.773438 -3.457031 2.625 -3.484375 2.46875 -3.484375 Z M 2.46875 -3.484375 "/></g></g></g><g fill="#000000" fill-opacity="1"><g transform="translate(179.654668, 124.805614)"><g><path d="M 3.046875 0 L 1.828125 0 L 0.4375 -3.953125 L 1.171875 -3.953125 L 2.390625 -0.28125 L 2.484375 -0.28125 L 3.703125 -3.953125 L 4.4375 -3.953125 Z M 3.046875 0 "/></g></g></g><g fill="#000000" fill-opacity="1"><g transform="translate(124.920162, 105.610574)"><g><path d="M 3.453125 0 L 1.78125 0 L 1.78125 -13.96875 L 3.453125 -13.96875 L 3.453125 -7.78125 L 3.90625 -7.78125 L 9.28125 -13.96875 L 11.359375 -13.96875 L 11.359375 -13.84375 L 5.5625 -7.109375 L 5.5625 -6.859375 L 11.59375 -0.125 L 11.59375 0 L 9.484375 0 L 3.90625 -6.21875 L 3.453125 -6.21875 Z M 3.453125 0 "/></g></g></g><g fill="#000000" fill-opacity="1"><g transform="translate(137.133797, 105.610574)"><g><path d="M 8.921875 -1.671875 L 8.671875 -1.671875 C 8.359375 -1.003906 7.914062 -0.507812 7.34375 -0.1875 C 6.78125 0.125 6.1875 0.28125 5.5625 0.28125 C 4.914062 0.28125 4.3125 0.171875 3.75 -0.046875 C 3.1875 -0.265625 2.695312 -0.585938 2.28125 -1.015625 C 1.863281 -1.453125 1.535156 -1.984375 1.296875 -2.609375 C 1.054688 -3.234375 0.9375 -3.957031 0.9375 -4.78125 L 0.9375 -5.109375 C 0.9375 -5.921875 1.054688 -6.640625 1.296875 -7.265625 C 1.535156 -7.890625 1.863281 -8.414062 2.28125 -8.84375 C 2.695312 -9.28125 3.1875 -9.609375 3.75 -9.828125 C 4.3125 -10.054688 4.90625 -10.171875 5.53125 -10.171875 C 6.207031 -10.171875 6.820312 -10.019531 7.375 -9.71875 C 7.925781 -9.425781 8.359375 -8.96875 8.671875 -8.34375 L 8.921875 -8.34375 L 8.921875 -9.890625 L 10.46875 -9.890625 L 10.46875 -2.03125 C 10.46875 -1.632812 10.648438 -1.4375 11.015625 -1.4375 L 11.515625 -1.4375 L 11.515625 0 L 10.453125 0 C 10.003906 0 9.632812 -0.144531 9.34375 -0.4375 C 9.0625 -0.726562 8.921875 -1.101562 8.921875 -1.5625 Z M 5.71875 -1.203125 C 6.1875 -1.203125 6.617188 -1.285156 7.015625 -1.453125 C 7.410156 -1.628906 7.742188 -1.875 8.015625 -2.1875 C 8.296875 -2.507812 8.515625 -2.894531 8.671875 -3.34375 C 8.835938 -3.789062 8.921875 -4.285156 8.921875 -4.828125 L 8.921875 -5.0625 C 8.921875 -5.59375 8.835938 -6.082031 8.671875 -6.53125 C 8.515625 -6.976562 8.289062 -7.359375 8 -7.671875 C 7.71875 -7.992188 7.378906 -8.242188 6.984375 -8.421875 C 6.597656 -8.609375 6.175781 -8.703125 5.71875 -8.703125 C 5.257812 -8.703125 4.835938 -8.613281 4.453125 -8.4375 C 4.066406 -8.269531 3.726562 -8.03125 3.4375 -7.71875 C 3.15625 -7.40625 2.929688 -7.023438 2.765625 -6.578125 C 2.609375 -6.128906 2.53125 -5.640625 2.53125 -5.109375 L 2.53125 -4.78125 C 2.53125 -3.65625 2.828125 -2.773438 3.421875 -2.140625 C 4.015625 -1.515625 4.78125 -1.203125 5.71875 -1.203125 Z M 5.71875 -1.203125 "/></g></g></g><g fill="#000000" fill-opacity="1"><g transform="translate(149.347432, 105.610574)"><g><path d="M 1.640625 -9.890625 L 4.6875 -9.890625 L 4.6875 -12.40625 C 4.6875 -12.863281 4.828125 -13.238281 5.109375 -13.53125 C 5.398438 -13.820312 5.769531 -13.96875 6.21875 -13.96875 L 10.140625 -13.96875 L 10.140625 -12.53125 L 6.78125 -12.53125 C 6.425781 -12.53125 6.25 -12.332031 6.25 -11.9375 L 6.25 -9.890625 L 10.375 -9.890625 L 10.375 -8.453125 L 6.25 -8.453125 L 6.25 0 L 4.6875 0 L 4.6875 -8.453125 L 1.640625 -8.453125 Z M 1.640625 -9.890625 "/></g></g></g><g fill="#000000" fill-opacity="1"><g transform="translate(161.561067, 105.610574)"><g><path d="M 2.875 -4.46875 C 2.914062 -3.488281 3.222656 -2.695312 3.796875 -2.09375 C 4.367188 -1.5 5.164062 -1.203125 6.1875 -1.203125 C 6.65625 -1.203125 7.0625 -1.253906 7.40625 -1.359375 C 7.75 -1.460938 8.039062 -1.609375 8.28125 -1.796875 C 8.53125 -1.984375 8.734375 -2.195312 8.890625 -2.4375 C 9.046875 -2.6875 9.171875 -2.953125 9.265625 -3.234375 L 10.734375 -2.828125 C 10.453125 -1.910156 9.9375 -1.160156 9.1875 -0.578125 C 8.4375 -0.00390625 7.421875 0.28125 6.140625 0.28125 C 5.441406 0.28125 4.796875 0.160156 4.203125 -0.078125 C 3.609375 -0.328125 3.097656 -0.675781 2.671875 -1.125 C 2.242188 -1.582031 1.910156 -2.125 1.671875 -2.75 C 1.429688 -3.375 1.3125 -4.066406 1.3125 -4.828125 L 1.3125 -5.3125 C 1.3125 -6 1.4375 -6.640625 1.6875 -7.234375 C 1.9375 -7.835938 2.28125 -8.351562 2.71875 -8.78125 C 3.15625 -9.21875 3.664062 -9.554688 4.25 -9.796875 C 4.84375 -10.046875 5.488281 -10.171875 6.1875 -10.171875 C 7 -10.171875 7.695312 -10.019531 8.28125 -9.71875 C 8.875 -9.425781 9.359375 -9.0625 9.734375 -8.625 C 10.117188 -8.1875 10.398438 -7.707031 10.578125 -7.1875 C 10.765625 -6.664062 10.859375 -6.1875 10.859375 -5.75 L 10.859375 -4.46875 Z M 6.1875 -8.703125 C 5.75 -8.703125 5.335938 -8.628906 4.953125 -8.484375 C 4.578125 -8.347656 4.242188 -8.148438 3.953125 -7.890625 C 3.671875 -7.640625 3.441406 -7.34375 3.265625 -7 C 3.085938 -6.664062 2.96875 -6.300781 2.90625 -5.90625 L 9.296875 -5.90625 C 9.273438 -6.332031 9.171875 -6.71875 8.984375 -7.0625 C 8.804688 -7.40625 8.570312 -7.695312 8.28125 -7.9375 C 8 -8.175781 7.675781 -8.363281 7.3125 -8.5 C 6.945312 -8.632812 6.570312 -8.703125 6.1875 -8.703125 Z M 6.1875 -8.703125 "/></g></g></g><g fill="#000000" fill-opacity="1"><g transform="translate(173.774702, 105.610574)"><g><path d="M 1.390625 -9.890625 L 4.515625 -9.890625 L 4.515625 -13.96875 L 6.0625 -13.96875 L 6.0625 -9.890625 L 9.890625 -9.890625 L 9.890625 -8.453125 L 6.0625 -8.453125 L 6.0625 -2.03125 C 6.0625 -1.632812 6.242188 -1.4375 6.609375 -1.4375 L 9.421875 -1.4375 L 9.421875 0 L 6.046875 0 C 5.597656 0 5.226562 -0.144531 4.9375 -0.4375 C 4.65625 -0.726562 4.515625 -1.101562 4.515625 -1.5625 L 4.515625 -8.453125 L 1.390625 -8.453125 Z M 1.390625 -9.890625 "/></g></g></g><g fill="#000000" fill-opacity="1"><g transform="translate(185.988337, 105.610574)"><g><path d="M 10.4375 -1.4375 L 10.4375 0 L 1.8125 0 L 1.8125 -2.46875 L 8.875 -8.21875 L 8.875 -8.453125 L 1.9375 -8.453125 L 1.9375 -9.890625 L 10.203125 -9.890625 L 10.203125 -7.5 L 3.09375 -1.671875 L 3.09375 -1.4375 Z M 10.4375 -1.4375 "/></g></g></g><g fill="#000000" fill-opacity="1"><g transform="translate(198.201972, 105.610574)"><g><path d="M 4.8125 -12.84375 C 4.8125 -13.226562 4.945312 -13.554688 5.21875 -13.828125 C 5.488281 -14.109375 5.816406 -14.25 6.203125 -14.25 C 6.585938 -14.25 6.914062 -14.109375 7.1875 -13.828125 C 7.46875 -13.554688 7.609375 -13.226562 7.609375 -12.84375 C 7.609375 -12.457031 7.46875 -12.128906 7.1875 -11.859375 C 6.914062 -11.585938 6.585938 -11.453125 6.203125 -11.453125 C 5.816406 -11.453125 5.488281 -11.585938 5.21875 -11.859375 C 4.945312 -12.128906 4.8125 -12.457031 4.8125 -12.84375 Z M 1.96875 -1.4375 L 5.453125 -1.4375 L 5.453125 -8.453125 L 2.328125 -8.453125 L 2.328125 -9.890625 L 7 -9.890625 L 7 -1.4375 L 10.234375 -1.4375 L 10.234375 0 L 1.96875 0 Z M 1.96875 -1.4375 "/></g></g></g><g fill="#000000" fill-opacity="1"><g transform="translate(210.415607, 105.610574)"><g><path d="M 3.796875 -7.34375 C 3.796875 -6.863281 4 -6.492188 4.40625 -6.234375 C 4.8125 -5.984375 5.550781 -5.820312 6.625 -5.75 C 7.78125 -5.65625 8.660156 -5.378906 9.265625 -4.921875 C 9.867188 -4.460938 10.171875 -3.789062 10.171875 -2.90625 L 10.171875 -2.796875 C 10.171875 -2.316406 10.070312 -1.882812 9.875 -1.5 C 9.6875 -1.125 9.421875 -0.800781 9.078125 -0.53125 C 8.742188 -0.269531 8.332031 -0.0703125 7.84375 0.0625 C 7.363281 0.207031 6.835938 0.28125 6.265625 0.28125 C 5.492188 0.28125 4.832031 0.175781 4.28125 -0.03125 C 3.726562 -0.238281 3.269531 -0.507812 2.90625 -0.84375 C 2.539062 -1.1875 2.265625 -1.570312 2.078125 -2 C 1.890625 -2.4375 1.78125 -2.875 1.75 -3.3125 L 3.234375 -3.671875 C 3.296875 -2.910156 3.585938 -2.300781 4.109375 -1.84375 C 4.628906 -1.382812 5.320312 -1.15625 6.1875 -1.15625 C 6.914062 -1.15625 7.503906 -1.296875 7.953125 -1.578125 C 8.398438 -1.867188 8.625 -2.273438 8.625 -2.796875 C 8.625 -3.347656 8.398438 -3.742188 7.953125 -3.984375 C 7.515625 -4.222656 6.804688 -4.378906 5.828125 -4.453125 C 4.679688 -4.523438 3.800781 -4.785156 3.1875 -5.234375 C 2.582031 -5.691406 2.28125 -6.351562 2.28125 -7.21875 L 2.28125 -7.34375 C 2.28125 -7.8125 2.378906 -8.21875 2.578125 -8.5625 C 2.773438 -8.914062 3.039062 -9.210938 3.375 -9.453125 C 3.71875 -9.691406 4.101562 -9.867188 4.53125 -9.984375 C 4.957031 -10.109375 5.398438 -10.171875 5.859375 -10.171875 C 6.515625 -10.171875 7.085938 -10.082031 7.578125 -9.90625 C 8.078125 -9.726562 8.488281 -9.492188 8.8125 -9.203125 C 9.144531 -8.921875 9.398438 -8.59375 9.578125 -8.21875 C 9.765625 -7.84375 9.882812 -7.472656 9.9375 -7.109375 L 8.453125 -6.75 C 8.390625 -7.382812 8.132812 -7.878906 7.6875 -8.234375 C 7.25 -8.597656 6.671875 -8.78125 5.953125 -8.78125 C 5.671875 -8.78125 5.398438 -8.75 5.140625 -8.6875 C 4.878906 -8.625 4.648438 -8.53125 4.453125 -8.40625 C 4.253906 -8.289062 4.09375 -8.144531 3.96875 -7.96875 C 3.851562 -7.789062 3.796875 -7.582031 3.796875 -7.34375 Z M 3.796875 -7.34375 "/></g></g></g><g fill="#000000" fill-opacity="1"><g transform="translate(117.047855, 114.769911)"><g><path d="M 0.546875 -3.5625 L 0.546875 -4.078125 L 2.578125 -4.078125 C 3.003906 -4.078125 3.335938 -3.960938 3.578125 -3.734375 C 3.828125 -3.515625 3.953125 -3.171875 3.953125 -2.703125 L 3.953125 -0.546875 C 3.953125 -0.390625 3.898438 -0.257812 3.796875 -0.15625 C 3.691406 -0.0507812 3.5625 0 3.40625 0 L 2.84375 0 C 2.675781 0 2.550781 -0.0390625 2.46875 -0.125 C 2.394531 -0.21875 2.359375 -0.332031 2.359375 -0.46875 L 2.265625 -0.46875 C 2.210938 -0.289062 2.117188 -0.148438 1.984375 -0.046875 C 1.847656 0.046875 1.671875 0.09375 1.453125 0.09375 C 1.285156 0.09375 1.128906 0.0625 0.984375 0 C 0.835938 -0.0703125 0.710938 -0.171875 0.609375 -0.296875 C 0.503906 -0.429688 0.421875 -0.59375 0.359375 -0.78125 C 0.296875 -0.976562 0.265625 -1.191406 0.265625 -1.421875 L 0.265625 -1.546875 C 0.265625 -1.773438 0.296875 -1.984375 0.359375 -2.171875 C 0.421875 -2.359375 0.503906 -2.519531 0.609375 -2.65625 C 0.710938 -2.789062 0.835938 -2.890625 0.984375 -2.953125 C 1.128906 -3.023438 1.28125 -3.0625 1.4375 -3.0625 C 1.65625 -3.0625 1.820312 -3.019531 1.9375 -2.9375 C 2.050781 -2.863281 2.144531 -2.75 2.21875 -2.59375 L 2.3125 -2.59375 L 2.3125 -2.96875 L 2.859375 -2.96875 L 2.859375 -0.71875 C 2.859375 -0.570312 2.921875 -0.5 3.046875 -0.5 L 3.21875 -0.5 C 3.34375 -0.5 3.40625 -0.570312 3.40625 -0.71875 L 3.40625 -2.640625 C 3.40625 -2.941406 3.332031 -3.171875 3.1875 -3.328125 C 3.039062 -3.484375 2.816406 -3.5625 2.515625 -3.5625 Z M 1.5625 -0.421875 C 1.695312 -0.421875 1.8125 -0.445312 1.90625 -0.5 C 2.007812 -0.550781 2.085938 -0.617188 2.140625 -0.703125 C 2.203125 -0.796875 2.242188 -0.90625 2.265625 -1.03125 C 2.296875 -1.15625 2.3125 -1.285156 2.3125 -1.421875 L 2.3125 -1.546875 C 2.3125 -1.679688 2.296875 -1.804688 2.265625 -1.921875 C 2.242188 -2.046875 2.203125 -2.15625 2.140625 -2.25 C 2.085938 -2.34375 2.007812 -2.414062 1.90625 -2.46875 C 1.8125 -2.519531 1.695312 -2.546875 1.5625 -2.546875 C 1.445312 -2.546875 1.34375 -2.519531 1.25 -2.46875 C 1.15625 -2.414062 1.078125 -2.34375 1.015625 -2.25 C 0.953125 -2.164062 0.898438 -2.0625 0.859375 -1.9375 C 0.828125 -1.8125 0.8125 -1.679688 0.8125 -1.546875 L 0.8125 -1.421875 C 0.8125 -1.128906 0.875 -0.890625 1 -0.703125 C 1.132812 -0.515625 1.320312 -0.421875 1.5625 -0.421875 Z M 1.5625 -0.421875 "/></g></g></g><g fill="#000000" fill-opacity="1"><g transform="translate(125.893153, 115.576356)"><g><path d="M 1.71875 -2.3125 L 1.859375 -2.3125 L 3.359375 -3.953125 L 4.125 -3.953125 L 4.125 -3.90625 L 2.484375 -2.09375 L 2.484375 -1.953125 L 4.3125 -0.046875 L 4.3125 0 L 3.546875 0 L 1.875 -1.734375 L 1.71875 -1.734375 L 1.71875 0 L 1.09375 0 L 1.09375 -5.59375 L 1.71875 -5.59375 Z M 1.71875 -2.3125 "/></g></g></g><g fill="#000000" fill-opacity="1"><g transform="translate(130.780583, 115.576356)"><g><path d="M 3.5625 -0.671875 L 3.46875 -0.671875 C 3.34375 -0.398438 3.164062 -0.203125 2.9375 -0.078125 C 2.71875 0.046875 2.484375 0.109375 2.234375 0.109375 C 1.972656 0.109375 1.726562 0.0664062 1.5 -0.015625 C 1.28125 -0.109375 1.082031 -0.238281 0.90625 -0.40625 C 0.738281 -0.582031 0.609375 -0.796875 0.515625 -1.046875 C 0.421875 -1.296875 0.375 -1.585938 0.375 -1.921875 L 0.375 -2.046875 C 0.375 -2.367188 0.421875 -2.65625 0.515625 -2.90625 C 0.609375 -3.15625 0.738281 -3.363281 0.90625 -3.53125 C 1.082031 -3.707031 1.28125 -3.84375 1.5 -3.9375 C 1.726562 -4.03125 1.96875 -4.078125 2.21875 -4.078125 C 2.488281 -4.078125 2.734375 -4.015625 2.953125 -3.890625 C 3.171875 -3.773438 3.34375 -3.59375 3.46875 -3.34375 L 3.5625 -3.34375 L 3.5625 -3.953125 L 4.1875 -3.953125 L 4.1875 -0.8125 C 4.1875 -0.65625 4.257812 -0.578125 4.40625 -0.578125 L 4.609375 -0.578125 L 4.609375 0 L 4.1875 0 C 4 0 3.847656 -0.0546875 3.734375 -0.171875 C 3.617188 -0.285156 3.5625 -0.4375 3.5625 -0.625 Z M 2.296875 -0.484375 C 2.484375 -0.484375 2.65625 -0.515625 2.8125 -0.578125 C 2.96875 -0.648438 3.097656 -0.75 3.203125 -0.875 C 3.316406 -1 3.40625 -1.148438 3.46875 -1.328125 C 3.53125 -1.515625 3.5625 -1.71875 3.5625 -1.9375 L 3.5625 -2.03125 C 3.5625 -2.238281 3.53125 -2.429688 3.46875 -2.609375 C 3.40625 -2.785156 3.316406 -2.9375 3.203125 -3.0625 C 3.085938 -3.195312 2.953125 -3.300781 2.796875 -3.375 C 2.640625 -3.445312 2.472656 -3.484375 2.296875 -3.484375 C 2.109375 -3.484375 1.9375 -3.445312 1.78125 -3.375 C 1.625 -3.3125 1.488281 -3.210938 1.375 -3.078125 C 1.257812 -2.953125 1.171875 -2.800781 1.109375 -2.625 C 1.046875 -2.445312 1.015625 -2.253906 1.015625 -2.046875 L 1.015625 -1.921875 C 1.015625 -1.460938 1.128906 -1.109375 1.359375 -0.859375 C 1.597656 -0.609375 1.910156 -0.484375 2.296875 -0.484375 Z M 2.296875 -0.484375 "/></g></g></g><g fill="#000000" fill-opacity="1"><g transform="translate(135.668013, 115.576356)"><g><path d="M 0.65625 -3.953125 L 1.875 -3.953125 L 1.875 -4.96875 C 1.875 -5.144531 1.929688 -5.289062 2.046875 -5.40625 C 2.160156 -5.53125 2.304688 -5.59375 2.484375 -5.59375 L 4.0625 -5.59375 L 4.0625 -5.015625 L 2.71875 -5.015625 C 2.570312 -5.015625 2.5 -4.9375 2.5 -4.78125 L 2.5 -3.953125 L 4.15625 -3.953125 L 4.15625 -3.390625 L 2.5 -3.390625 L 2.5 0 L 1.875 0 L 1.875 -3.390625 L 0.65625 -3.390625 Z M 0.65625 -3.953125 "/></g></g></g><g fill="#000000" fill-opacity="1"><g transform="translate(140.555443, 115.576356)"><g><path d="M 1.15625 -1.78125 C 1.164062 -1.394531 1.285156 -1.082031 1.515625 -0.84375 C 1.742188 -0.601562 2.0625 -0.484375 2.46875 -0.484375 C 2.65625 -0.484375 2.816406 -0.503906 2.953125 -0.546875 C 3.097656 -0.585938 3.21875 -0.644531 3.3125 -0.71875 C 3.414062 -0.789062 3.5 -0.875 3.5625 -0.96875 C 3.625 -1.070312 3.671875 -1.179688 3.703125 -1.296875 L 4.296875 -1.140625 C 4.179688 -0.765625 3.972656 -0.460938 3.671875 -0.234375 C 3.367188 -0.00390625 2.960938 0.109375 2.453125 0.109375 C 2.171875 0.109375 1.910156 0.0625 1.671875 -0.03125 C 1.441406 -0.132812 1.238281 -0.273438 1.0625 -0.453125 C 0.894531 -0.640625 0.765625 -0.859375 0.671875 -1.109375 C 0.578125 -1.359375 0.53125 -1.632812 0.53125 -1.9375 L 0.53125 -2.125 C 0.53125 -2.394531 0.578125 -2.648438 0.671875 -2.890625 C 0.773438 -3.128906 0.910156 -3.335938 1.078125 -3.515625 C 1.253906 -3.691406 1.460938 -3.828125 1.703125 -3.921875 C 1.941406 -4.023438 2.195312 -4.078125 2.46875 -4.078125 C 2.800781 -4.078125 3.082031 -4.015625 3.3125 -3.890625 C 3.550781 -3.773438 3.742188 -3.628906 3.890625 -3.453125 C 4.046875 -3.273438 4.160156 -3.082031 4.234375 -2.875 C 4.304688 -2.664062 4.34375 -2.472656 4.34375 -2.296875 L 4.34375 -1.78125 Z M 2.46875 -3.484375 C 2.300781 -3.484375 2.140625 -3.453125 1.984375 -3.390625 C 1.828125 -3.335938 1.691406 -3.257812 1.578125 -3.15625 C 1.460938 -3.0625 1.367188 -2.945312 1.296875 -2.8125 C 1.234375 -2.675781 1.191406 -2.523438 1.171875 -2.359375 L 3.71875 -2.359375 C 3.707031 -2.535156 3.664062 -2.691406 3.59375 -2.828125 C 3.519531 -2.960938 3.425781 -3.078125 3.3125 -3.171875 C 3.195312 -3.273438 3.066406 -3.351562 2.921875 -3.40625 C 2.773438 -3.457031 2.625 -3.484375 2.46875 -3.484375 Z M 2.46875 -3.484375 "/></g></g></g><g fill="#000000" fill-opacity="1"><g transform="translate(145.442874, 115.576356)"><g><path d="M 0.5625 -3.953125 L 1.796875 -3.953125 L 1.796875 -5.59375 L 2.421875 -5.59375 L 2.421875 -3.953125 L 3.953125 -3.953125 L 3.953125 -3.390625 L 2.421875 -3.390625 L 2.421875 -0.8125 C 2.421875 -0.65625 2.492188 -0.578125 2.640625 -0.578125 L 3.765625 -0.578125 L 3.765625 0 L 2.421875 0 C 2.234375 0 2.082031 -0.0546875 1.96875 -0.171875 C 1.851562 -0.285156 1.796875 -0.4375 1.796875 -0.625 L 1.796875 -3.390625 L 0.5625 -3.390625 Z M 0.5625 -3.953125 "/></g></g></g><g fill="#000000" fill-opacity="1"><g transform="translate(150.330304, 115.576356)"><g><path d="M 4.171875 -0.578125 L 4.171875 0 L 0.734375 0 L 0.734375 -0.984375 L 3.546875 -3.296875 L 3.546875 -3.390625 L 0.78125 -3.390625 L 0.78125 -3.953125 L 4.078125 -3.953125 L 4.078125 -3 L 1.234375 -0.671875 L 1.234375 -0.578125 Z M 4.171875 -0.578125 "/></g></g></g><g fill="#000000" fill-opacity="1"><g transform="translate(155.217734, 115.576356)"><g><path d="M 1.921875 -5.140625 C 1.921875 -5.296875 1.972656 -5.425781 2.078125 -5.53125 C 2.191406 -5.644531 2.328125 -5.703125 2.484375 -5.703125 C 2.640625 -5.703125 2.769531 -5.644531 2.875 -5.53125 C 2.988281 -5.425781 3.046875 -5.296875 3.046875 -5.140625 C 3.046875 -4.984375 2.988281 -4.847656 2.875 -4.734375 C 2.769531 -4.628906 2.640625 -4.578125 2.484375 -4.578125 C 2.328125 -4.578125 2.191406 -4.628906 2.078125 -4.734375 C 1.972656 -4.847656 1.921875 -4.984375 1.921875 -5.140625 Z M 0.796875 -0.578125 L 2.1875 -0.578125 L 2.1875 -3.390625 L 0.9375 -3.390625 L 0.9375 -3.953125 L 2.796875 -3.953125 L 2.796875 -0.578125 L 4.09375 -0.578125 L 4.09375 0 L 0.796875 0 Z M 0.796875 -0.578125 "/></g></g></g><g fill="#000000" fill-opacity="1"><g transform="translate(160.105164, 115.576356)"><g><path d="M 1.515625 -2.9375 C 1.515625 -2.75 1.59375 -2.601562 1.75 -2.5 C 1.914062 -2.394531 2.21875 -2.328125 2.65625 -2.296875 C 3.113281 -2.265625 3.460938 -2.15625 3.703125 -1.96875 C 3.953125 -1.78125 4.078125 -1.515625 4.078125 -1.171875 L 4.078125 -1.125 C 4.078125 -0.925781 4.035156 -0.75 3.953125 -0.59375 C 3.878906 -0.445312 3.773438 -0.320312 3.640625 -0.21875 C 3.503906 -0.113281 3.335938 -0.0351562 3.140625 0.015625 C 2.941406 0.078125 2.726562 0.109375 2.5 0.109375 C 2.195312 0.109375 1.929688 0.0664062 1.703125 -0.015625 C 1.484375 -0.0976562 1.300781 -0.207031 1.15625 -0.34375 C 1.007812 -0.476562 0.898438 -0.628906 0.828125 -0.796875 C 0.753906 -0.972656 0.710938 -1.148438 0.703125 -1.328125 L 1.296875 -1.46875 C 1.316406 -1.164062 1.429688 -0.921875 1.640625 -0.734375 C 1.847656 -0.554688 2.125 -0.46875 2.46875 -0.46875 C 2.769531 -0.46875 3.007812 -0.523438 3.1875 -0.640625 C 3.363281 -0.753906 3.453125 -0.914062 3.453125 -1.125 C 3.453125 -1.34375 3.363281 -1.5 3.1875 -1.59375 C 3.007812 -1.6875 2.722656 -1.75 2.328125 -1.78125 C 1.867188 -1.8125 1.515625 -1.914062 1.265625 -2.09375 C 1.023438 -2.28125 0.90625 -2.546875 0.90625 -2.890625 L 0.90625 -2.9375 C 0.90625 -3.125 0.945312 -3.285156 1.03125 -3.421875 C 1.113281 -3.566406 1.222656 -3.6875 1.359375 -3.78125 C 1.492188 -3.875 1.644531 -3.945312 1.8125 -4 C 1.976562 -4.050781 2.15625 -4.078125 2.34375 -4.078125 C 2.601562 -4.078125 2.832031 -4.039062 3.03125 -3.96875 C 3.226562 -3.894531 3.394531 -3.800781 3.53125 -3.6875 C 3.664062 -3.570312 3.765625 -3.4375 3.828125 -3.28125 C 3.898438 -3.132812 3.945312 -2.988281 3.96875 -2.84375 L 3.390625 -2.703125 C 3.359375 -2.953125 3.253906 -3.148438 3.078125 -3.296875 C 2.898438 -3.441406 2.664062 -3.515625 2.375 -3.515625 C 2.269531 -3.515625 2.164062 -3.5 2.0625 -3.46875 C 1.957031 -3.445312 1.863281 -3.410156 1.78125 -3.359375 C 1.695312 -3.316406 1.628906 -3.257812 1.578125 -3.1875 C 1.535156 -3.113281 1.515625 -3.03125 1.515625 -2.9375 Z M 1.515625 -2.9375 "/></g></g></g><g fill="#000000" fill-opacity="1"><g transform="translate(164.992594, 115.576356)"><g><path d="M 1.890625 -0.453125 C 1.890625 -0.597656 1.941406 -0.722656 2.046875 -0.828125 C 2.160156 -0.941406 2.289062 -1 2.4375 -1 C 2.59375 -1 2.722656 -0.941406 2.828125 -0.828125 C 2.941406 -0.722656 3 -0.597656 3 -0.453125 C 3 -0.296875 2.941406 -0.160156 2.828125 -0.046875 C 2.722656 0.0546875 2.59375 0.109375 2.4375 0.109375 C 2.289062 0.109375 2.160156 0.0546875 2.046875 -0.046875 C 1.941406 -0.160156 1.890625 -0.296875 1.890625 -0.453125 Z M 1.890625 -0.453125 "/></g></g></g><g fill="#000000" fill-opacity="1"><g transform="translate(169.880024, 115.576356)"><g><path d="M 3.765625 -0.609375 L 3.671875 -0.609375 C 3.597656 -0.484375 3.515625 -0.375 3.421875 -0.28125 C 3.328125 -0.195312 3.222656 -0.125 3.109375 -0.0625 C 2.992188 0 2.867188 0.0390625 2.734375 0.0625 C 2.609375 0.09375 2.488281 0.109375 2.375 0.109375 C 2.101562 0.109375 1.851562 0.0664062 1.625 -0.015625 C 1.394531 -0.109375 1.191406 -0.238281 1.015625 -0.40625 C 0.847656 -0.582031 0.710938 -0.796875 0.609375 -1.046875 C 0.515625 -1.296875 0.46875 -1.585938 0.46875 -1.921875 L 0.46875 -2.046875 C 0.46875 -2.359375 0.519531 -2.640625 0.625 -2.890625 C 0.726562 -3.148438 0.863281 -3.363281 1.03125 -3.53125 C 1.195312 -3.707031 1.394531 -3.84375 1.625 -3.9375 C 1.851562 -4.03125 2.097656 -4.078125 2.359375 -4.078125 C 2.628906 -4.078125 2.878906 -4.015625 3.109375 -3.890625 C 3.347656 -3.773438 3.535156 -3.59375 3.671875 -3.34375 L 3.765625 -3.34375 L 3.765625 -5.59375 L 4.390625 -5.59375 L 4.390625 0 L 3.765625 0 Z M 2.4375 -0.484375 C 2.625 -0.484375 2.796875 -0.515625 2.953125 -0.578125 C 3.109375 -0.648438 3.242188 -0.75 3.359375 -0.875 C 3.484375 -1 3.582031 -1.148438 3.65625 -1.328125 C 3.726562 -1.515625 3.765625 -1.71875 3.765625 -1.9375 L 3.765625 -2.03125 C 3.765625 -2.238281 3.726562 -2.429688 3.65625 -2.609375 C 3.582031 -2.785156 3.484375 -2.9375 3.359375 -3.0625 C 3.242188 -3.195312 3.101562 -3.300781 2.9375 -3.375 C 2.78125 -3.445312 2.613281 -3.484375 2.4375 -3.484375 C 2.25 -3.484375 2.070312 -3.445312 1.90625 -3.375 C 1.75 -3.3125 1.609375 -3.210938 1.484375 -3.078125 C 1.367188 -2.953125 1.273438 -2.800781 1.203125 -2.625 C 1.140625 -2.445312 1.109375 -2.253906 1.109375 -2.046875 L 1.109375 -1.921875 C 1.109375 -1.691406 1.140625 -1.488281 1.203125 -1.3125 C 1.273438 -1.132812 1.367188 -0.984375 1.484375 -0.859375 C 1.609375 -0.734375 1.75 -0.640625 1.90625 -0.578125 C 2.0625 -0.515625 2.238281 -0.484375 2.4375 -0.484375 Z M 2.4375 -0.484375 "/></g></g></g><g fill="#000000" fill-opacity="1"><g transform="translate(174.767454, 115.576356)"><g><path d="M 1.15625 -1.78125 C 1.164062 -1.394531 1.285156 -1.082031 1.515625 -0.84375 C 1.742188 -0.601562 2.0625 -0.484375 2.46875 -0.484375 C 2.65625 -0.484375 2.816406 -0.503906 2.953125 -0.546875 C 3.097656 -0.585938 3.21875 -0.644531 3.3125 -0.71875 C 3.414062 -0.789062 3.5 -0.875 3.5625 -0.96875 C 3.625 -1.070312 3.671875 -1.179688 3.703125 -1.296875 L 4.296875 -1.140625 C 4.179688 -0.765625 3.972656 -0.460938 3.671875 -0.234375 C 3.367188 -0.00390625 2.960938 0.109375 2.453125 0.109375 C 2.171875 0.109375 1.910156 0.0625 1.671875 -0.03125 C 1.441406 -0.132812 1.238281 -0.273438 1.0625 -0.453125 C 0.894531 -0.640625 0.765625 -0.859375 0.671875 -1.109375 C 0.578125 -1.359375 0.53125 -1.632812 0.53125 -1.9375 L 0.53125 -2.125 C 0.53125 -2.394531 0.578125 -2.648438 0.671875 -2.890625 C 0.773438 -3.128906 0.910156 -3.335938 1.078125 -3.515625 C 1.253906 -3.691406 1.460938 -3.828125 1.703125 -3.921875 C 1.941406 -4.023438 2.195312 -4.078125 2.46875 -4.078125 C 2.800781 -4.078125 3.082031 -4.015625 3.3125 -3.890625 C 3.550781 -3.773438 3.742188 -3.628906 3.890625 -3.453125 C 4.046875 -3.273438 4.160156 -3.082031 4.234375 -2.875 C 4.304688 -2.664062 4.34375 -2.472656 4.34375 -2.296875 L 4.34375 -1.78125 Z M 2.46875 -3.484375 C 2.300781 -3.484375 2.140625 -3.453125 1.984375 -3.390625 C 1.828125 -3.335938 1.691406 -3.257812 1.578125 -3.15625 C 1.460938 -3.0625 1.367188 -2.945312 1.296875 -2.8125 C 1.234375 -2.675781 1.191406 -2.523438 1.171875 -2.359375 L 3.71875 -2.359375 C 3.707031 -2.535156 3.664062 -2.691406 3.59375 -2.828125 C 3.519531 -2.960938 3.425781 -3.078125 3.3125 -3.171875 C 3.195312 -3.273438 3.066406 -3.351562 2.921875 -3.40625 C 2.773438 -3.457031 2.625 -3.484375 2.46875 -3.484375 Z M 2.46875 -3.484375 "/></g></g></g><g fill="#000000" fill-opacity="1"><g transform="translate(179.654884, 115.576356)"><g><path d="M 3.046875 0 L 1.828125 0 L 0.4375 -3.953125 L 1.171875 -3.953125 L 2.390625 -0.28125 L 2.484375 -0.28125 L 3.703125 -3.953125 L 4.4375 -3.953125 Z M 3.046875 0 "/></g></g></g></svg>